<?xml version="1.0" encoding="UTF-8"?>
<svg version="1.1" xmlns="http://www.w3.org/2000/svg" width="48" height="48">
<path d="M0 0 C0.7027002 -0.00191345 1.40540039 -0.0038269 2.12939453 -0.00579834 C3.61556354 -0.00715975 5.10174445 -0.00346632 6.58789062 0.00488281 C8.86615646 0.01558346 11.14363377 0.00498661 13.421875 -0.0078125 C14.86458508 -0.0064909 16.30729466 -0.00392849 17.75 0 C19.06742188 0.00225586 20.38484375 0.00451172 21.7421875 0.00683594 C24.875 0.265625 24.875 0.265625 26.875 2.265625 C27.0703125 4.8671875 27.0703125 4.8671875 27 7.890625 C26.98195312 8.89351562 26.96390625 9.89640625 26.9453125 10.9296875 C26.92210937 11.70054688 26.89890625 12.47140625 26.875 13.265625 C27.57367188 13.24242187 28.27234375 13.21921875 28.9921875 13.1953125 C30.35730469 13.16824219 30.35730469 13.16824219 31.75 13.140625 C33.10738281 13.10582031 33.10738281 13.10582031 34.4921875 13.0703125 C36.875 13.265625 36.875 13.265625 38.875 15.265625 C39.04995606 17.77483346 39.10669569 20.17187441 39.0703125 22.6796875 C39.0674826 23.40932709 39.06465271 24.13896667 39.06173706 24.89071655 C39.05053002 27.22418528 39.0254251 29.55727203 39 31.890625 C38.98997085 33.47134863 38.98084489 35.05207827 38.97265625 36.6328125 C38.95058905 40.51056414 38.91605615 44.38802978 38.875 48.265625 C37.72873678 47.28696162 36.58300212 46.30767913 35.4375 45.328125 C34.79941406 44.78285156 34.16132812 44.23757812 33.50390625 43.67578125 C32.60508851 42.89766805 31.71563472 42.10625972 30.875 41.265625 C29.04600475 41.13204353 27.21227786 41.06214778 25.37890625 41.01953125 C24.26322266 40.98666016 23.14753906 40.95378906 21.99804688 40.91992188 C19.6283502 40.85882712 17.25855272 40.80152245 14.88867188 40.74804688 C13.21321289 40.69680664 13.21321289 40.69680664 11.50390625 40.64453125 C10.47338135 40.6194751 9.44285645 40.59441895 8.38110352 40.56860352 C5.875 40.265625 5.875 40.265625 3.875 38.265625 C3.6796875 35.6640625 3.6796875 35.6640625 3.75 32.640625 C3.76804687 31.63773438 3.78609375 30.63484375 3.8046875 29.6015625 C3.82789063 28.83070312 3.85109375 28.05984375 3.875 27.265625 C-0.15043649 28.24743878 -2.78214945 29.63926768 -5.83984375 32.3515625 C-6.45851318 32.89603027 -7.07718262 33.44049805 -7.71459961 34.00146484 C-8.18003174 34.4186377 -8.64546387 34.83581055 -9.125 35.265625 C-9.17437279 30.60255486 -9.21070627 25.93963627 -9.23486328 21.27636719 C-9.24493188 19.68942617 -9.25858767 18.10250375 -9.27587891 16.515625 C-9.30009001 14.23693253 -9.31147422 11.95848494 -9.3203125 9.6796875 C-9.33063507 8.96817535 -9.34095764 8.25666321 -9.35159302 7.52359009 C-9.35199422 5.76930835 -9.24702209 4.01565791 -9.125 2.265625 C-6.22058341 -0.63879159 -4.05742155 0.00694764 0 0 Z " fill="#2999F2" transform="translate(9.125,-0.265625)"/>
<path d="M0 0 C1.62463842 -0.05395478 3.24978541 -0.09277195 4.875 -0.125 C6.23238281 -0.15980469 6.23238281 -0.15980469 7.6171875 -0.1953125 C10 0 10 0 12 2 C12.17495606 4.50920846 12.23169569 6.90624941 12.1953125 9.4140625 C12.1924826 10.14370209 12.18965271 10.87334167 12.18673706 11.62509155 C12.17553002 13.95856028 12.1504251 16.29164703 12.125 18.625 C12.11497085 20.20572363 12.10584489 21.78645327 12.09765625 23.3671875 C12.07558905 27.24493914 12.04105615 31.12240478 12 35 C10.85373678 34.02133662 9.70800212 33.04205413 8.5625 32.0625 C7.92441406 31.51722656 7.28632812 30.97195312 6.62890625 30.41015625 C5.73008851 29.63204305 4.84063472 28.84063472 4 28 C2.17100475 27.86641853 0.33727786 27.79652278 -1.49609375 27.75390625 C-2.61177734 27.72103516 -3.72746094 27.68816406 -4.87695312 27.65429688 C-7.2466498 27.59320212 -9.61644728 27.53589745 -11.98632812 27.48242188 C-13.10330078 27.44826172 -14.22027344 27.41410156 -15.37109375 27.37890625 C-16.9168811 27.34132202 -16.9168811 27.34132202 -18.49389648 27.30297852 C-21 27 -21 27 -23 25 C-23.1953125 22.3984375 -23.1953125 22.3984375 -23.125 19.375 C-23.10695313 18.37210938 -23.08890625 17.36921875 -23.0703125 16.3359375 C-23.04710937 15.56507812 -23.02390625 14.79421875 -23 14 C-22.16021606 13.970271 -22.16021606 13.970271 -21.3034668 13.93994141 C-18.76434146 13.84462217 -16.22603112 13.73497247 -13.6875 13.625 C-12.80642578 13.5940625 -11.92535156 13.563125 -11.01757812 13.53125 C-10.17001953 13.49257813 -9.32246094 13.45390625 -8.44921875 13.4140625 C-7.66893311 13.3826416 -6.88864746 13.3512207 -6.0847168 13.31884766 C-3.69844232 13.10412111 -3.69844232 13.10412111 -1 11 C-0.41651248 8.3443272 -0.41651248 8.3443272 -0.3125 5.375 C-0.24675781 4.37210938 -0.18101563 3.36921875 -0.11328125 2.3359375 C-0.07589844 1.56507812 -0.03851563 0.79421875 0 0 Z " fill="#1464BF" transform="translate(36,13)"/>
<path d="M0 0 C8.58 0 17.16 0 26 0 C26 0.99 26 1.98 26 3 C17.42 3 8.84 3 0 3 C0 2.01 0 1.02 0 0 Z " fill="#C9E5FB" transform="translate(5,12)"/>
<path d="M0 0 C8.58 0 17.16 0 26 0 C26 0.99 26 1.98 26 3 C17.42 3 8.84 3 0 3 C0 2.01 0 1.02 0 0 Z " fill="#C9E5FB" transform="translate(5,5)"/>
</svg>
