<?xml version="1.0" encoding="UTF-8"?>
<svg version="1.1" xmlns="http://www.w3.org/2000/svg" width="520" height="398">
<path d="M0 0 C0.52938657 1.95603851 1.04826801 3.91492289 1.5625 5.875 C1.99755859 7.51082031 1.99755859 7.51082031 2.44140625 9.1796875 C3 12 3 12 2 14 C0.16655876 14.6081365 -1.6941672 15.13441936 -3.5625 15.625 C-19.91976338 20.4476035 -33.66156538 29.38371456 -46 41 C-46.60585937 41.52980469 -47.21171875 42.05960938 -47.8359375 42.60546875 C-66.66910578 59.80289237 -74.47250151 86.29620289 -76.2890625 110.91796875 C-76.81435516 133.19515308 -70.31735839 153.59224429 -57.94140625 171.97265625 C-56 175 -56 175 -56 177 C-55.34 177 -54.68 177 -54 177 C-52.67578125 178.390625 -52.67578125 178.390625 -51.3125 180.25 C-50.85488281 180.85328125 -50.39726562 181.4565625 -49.92578125 182.078125 C-49 184 -49 184 -49.21875 186.03125 C-50.54383518 189.37046466 -52.44857968 191.50527791 -55 194 C-57.93359375 194.43359375 -57.93359375 194.43359375 -61 194 C-73.72369078 183.28403989 -82.10297481 163.08079332 -86.8125 147.3125 C-87.00739014 146.66055664 -87.20228027 146.00861328 -87.40307617 145.33691406 C-93.23529581 124.55786447 -93.64310205 100.61687228 -87 80 C-86.78569336 79.32227539 -86.57138672 78.64455078 -86.35058594 77.94628906 C-81.23263331 62.20504611 -73.50904142 48.73771252 -63 36 C-62.58242432 35.48308594 -62.16484863 34.96617188 -61.73461914 34.43359375 C-59.27385515 31.41483018 -56.74954087 28.68141855 -53.8125 26.125 C-53.13832031 25.52945313 -52.46414062 24.93390625 -51.76953125 24.3203125 C-50 23 -50 23 -48 23 C-47.505 21.515 -47.505 21.515 -47 20 C-37.65132402 11.77153574 -25.59224788 6.75945467 -14 2.5625 C-13.29415771 2.30331787 -12.58831543 2.04413574 -11.86108398 1.77709961 C-7.77679351 0.36018034 -4.3177628 -0.27660668 0 0 Z " fill="#1D84B7" transform="translate(222,92)"/>
<path d="M0 0 C1.96875 1.40234375 1.96875 1.40234375 3.75 2.875 C4.3790625 3.30941406 5.008125 3.74382812 5.65625 4.19140625 C11.65550905 8.65271965 15.36388191 15.55237613 16.75 22.875 C17.58293641 32.06460991 16.35558843 40.35947454 11.23828125 48.1875 C10.50158203 49.0228125 10.50158203 49.0228125 9.75 49.875 C9.09 49.875 8.43 49.875 7.75 49.875 C7.53214844 50.46925781 7.31429687 51.06351563 7.08984375 51.67578125 C3.9427464 56.841425 -3.38447573 59.09645784 -8.99609375 60.62109375 C-17.79649792 61.88950267 -26.84452792 59.82741887 -34.22265625 54.8828125 C-40.43502397 49.59452304 -44.64126255 44.00724162 -46.25 35.875 C-47.01967803 24.95149263 -46.36018775 16.15451818 -39.1875 7.5625 C-29.36504514 -2.38528124 -13.16295646 -6.97795282 0 0 Z " fill="#0A97C9" transform="translate(283.25,65.125)"/>
<path d="M0 0 C2.19510603 0.25361783 4.38228739 0.57765908 6.5625 0.9375 C8.35880859 1.22947266 8.35880859 1.22947266 10.19140625 1.52734375 C11.11824219 1.68332031 12.04507813 1.83929688 13 2 C14 5 14 5 12.41015625 8.22265625 C11.64057793 9.51044647 10.8571323 10.79001662 10.0625 12.0625 C9.65370605 12.72846191 9.24491211 13.39442383 8.82373047 14.08056641 C-0.6287032 29.20956773 -0.6287032 29.20956773 -6 31 C-6.27199219 31.5775 -6.54398438 32.155 -6.82421875 32.75 C-8.4822996 35.92293877 -11.06373817 37.80630857 -13.8125 40 C-14.59463867 40.63808594 -14.59463867 40.63808594 -15.39257812 41.2890625 C-16.92197203 42.53396241 -18.46089061 43.76713189 -20 45 C-20.85207031 45.70511719 -21.70414062 46.41023438 -22.58203125 47.13671875 C-46.58176603 65.63086009 -78.89450544 70.69654993 -108.3125 67.25 C-120.23246976 65.55566996 -134.37297182 62.68855418 -144 55 C-143.52389341 50.00088076 -141.96837781 47.02167317 -139 43 C-135.24096828 43.38554171 -132.19954639 44.27894577 -128.8125 45.875 C-106.9741669 55.92063323 -80.73607234 55.14779812 -58.1953125 47.8125 C-54.37007587 46.39675406 -50.67841024 44.7589489 -47 43 C-46.33226562 42.69191406 -45.66453125 42.38382812 -44.9765625 42.06640625 C-33.3629407 36.53501721 -24.12568358 28.36195994 -15.265625 19.16015625 C-13 17 -13 17 -11 17 C-10.75378906 16.29359375 -10.50757813 15.5871875 -10.25390625 14.859375 C-8.83565191 11.62522492 -7.04495995 9.08034549 -4.9375 6.25 C-4.22464844 5.28578125 -3.51179687 4.3215625 -2.77734375 3.328125 C-1 1 -1 1 0 0 Z " fill="#2F5996" transform="translate(339,255)"/>
<path d="M0 0 C6.8990625 -0.12375 6.8990625 -0.12375 13.9375 -0.25 C16.08560181 -0.30462402 16.08560181 -0.30462402 18.27709961 -0.36035156 C25.59196467 -0.42361747 31.77752064 -0.15701186 38 4 C41.31055446 7.47204492 42.22138362 10.01019256 42.3125 14.6875 C42.22112649 17.47198737 41.8951052 19.3146844 41 22 C40.34 22 39.68 22 39 22 C38.67 23.32 38.34 24.64 38 26 C38.66 26 39.32 26 40 26 C42.80974656 29.71214691 43.38815474 32.45920019 43.3125 37.0625 C43.30863281 38.08472656 43.30476563 39.10695312 43.30078125 40.16015625 C43.00151118 42.98573213 42.53491723 44.63366926 41 47 C35.5156207 51.00211463 30.36089109 51.12494194 23.73046875 51.09765625 C22.48418701 51.09515869 21.23790527 51.09266113 19.95385742 51.09008789 C18.38095947 51.08098389 16.80806152 51.07187988 15.1875 51.0625 C7.6696875 51.0315625 7.6696875 51.0315625 0 51 C0 34.17 0 17.34 0 0 Z M11 10 C11 13.3 11 16.6 11 20 C13.77109307 20.05392397 16.54113818 20.09363455 19.3125 20.125 C20.09818359 20.14175781 20.88386719 20.15851563 21.69335938 20.17578125 C22.45068359 20.18222656 23.20800781 20.18867188 23.98828125 20.1953125 C25.03302612 20.21102295 25.03302612 20.21102295 26.09887695 20.22705078 C28.331173 20.10574595 28.331173 20.10574595 31 18 C30.81584568 15.05908413 30.81584568 15.05908413 30 12 C26.48633866 9.32961738 22.45719742 9.77160952 18.25 9.875 C17.20392578 9.88853516 17.20392578 9.88853516 16.13671875 9.90234375 C14.42433042 9.92580112 12.71211996 9.96166896 11 10 Z M11 30 C11 33.63 11 37.26 11 41 C13.75026417 41.05404449 16.49946203 41.09369306 19.25 41.125 C20.41595703 41.15013672 20.41595703 41.15013672 21.60546875 41.17578125 C27.08306936 41.25968301 27.08306936 41.25968301 32 39 C32.41746608 36.12635209 32.41746608 36.12635209 32 33 C27.89274724 29.53450548 23.81275369 29.63387186 18.6875 29.8125 C17.57665039 29.83280273 17.57665039 29.83280273 16.44335938 29.85351562 C14.62858925 29.88864021 12.81419712 29.94244028 11 30 Z " fill="#3E3E3E" transform="translate(214,180)"/>
<path d="M0 0 C1.17578125 2.40625 1.17578125 2.40625 2.3125 5.5 C4.30650738 10.59444569 6.65240496 14.84184662 9.86328125 19.2578125 C11 21 11 21 11 23 C11.99 23.33 12.98 23.66 14 24 C14 24.66 14 25.32 14 26 C14.99 26.33 15.98 26.66 17 27 C17.495 27.99 17.495 27.99 18 29 C21.53402138 31.24484117 25.26715305 33.10940006 29 35 C29.78890625 35.41121094 30.5778125 35.82242188 31.390625 36.24609375 C43.12427672 41.69386062 57.99897513 41.09791093 70 37 C72 38 72 38 72.8515625 39.92578125 C73.10679687 40.71339844 73.36203125 41.50101562 73.625 42.3125 C73.88539063 43.09238281 74.14578125 43.87226563 74.4140625 44.67578125 C75 47 75 47 75 51 C58.68662631 57.2652812 39.86566552 56.52221411 23.65625 50.1875 C15.48762313 46.53564328 8.12543808 41.5693104 2 35 C2 34.34 2 33.68 2 33 C1.34 33 0.68 33 0 33 C-7.65771057 24.10826543 -12.95215292 14.5424108 -15 3 C-3 -1 -3 -1 0 0 Z " fill="#1C5494" transform="translate(197,218)"/>
<path d="M0 0 C1.30287266 3.90861798 0.05977535 6.19352286 -1.3125 9.875 C-10.01939737 34.85753559 -7.18834232 62.2629462 4 86 C7.14444659 92.36053881 10.5456137 98.46211433 15 104 C15.99 104.33 16.98 104.66 18 105 C19.421875 106.48828125 19.421875 106.48828125 20.75 108.3125 C21.19859375 108.90675781 21.6471875 109.50101562 22.109375 110.11328125 C23 112 23 112 22.77734375 114.02734375 C21.45944733 117.37175426 19.55255717 119.50416632 17 122 C14.06640625 122.43359375 14.06640625 122.43359375 11 122 C-1.72369078 111.28403989 -10.10297481 91.08079332 -14.8125 75.3125 C-15.00739014 74.66055664 -15.20228027 74.00861328 -15.40307617 73.33691406 C-18.49108684 62.33494041 -19.32046018 51.58443416 -19.25 40.1875 C-19.25773438 38.91712891 -19.26546875 37.64675781 -19.2734375 36.33789062 C-19.2605897 30.19985648 -19.17487155 24.77376613 -17 19 C-16.34 19 -15.68 19 -15 19 C-15.103125 18.2575 -15.20625 17.515 -15.3125 16.75 C-15 14 -15 14 -12.625 11.6875 C-10 10 -10 10 -8 10 C-7.67 9.01 -7.34 8.02 -7 7 C-5.6875 5.5625 -5.6875 5.5625 -4 4 C-3.278125 3.278125 -2.55625 2.55625 -1.8125 1.8125 C-1.214375 1.214375 -0.61625 0.61625 0 0 Z " fill="#2F629C" transform="translate(150,164)"/>
<path d="M0 0 C0.969375 0.78375 1.93875 1.5675 2.9375 2.375 C2.14245154 6.15148021 1.09376625 8.00780031 -2.0625 10.375 C-5.31977718 10.28696548 -7.52368383 9.16537098 -10.5 7.8125 C-15.3782336 5.84408995 -18.27387408 5.69532215 -23.1875 7.5625 C-27.71832529 10.41888986 -29.5683163 13.04968916 -31.4375 18.0625 C-32.7371178 24.00683882 -30.94416705 29.72999886 -29.0625 35.375 C-22.92587415 38.44331293 -16.67835945 38.91489832 -10.0625 37.375 C-7.89211523 36.58200294 -7.89211523 36.58200294 -7.4296875 34.52734375 C-7.26726562 33.79644531 -7.10484375 33.06554687 -6.9375 32.3125 C-6.76992188 31.57902344 -6.60234375 30.84554687 -6.4296875 30.08984375 C-6.24792969 29.24099609 -6.24792969 29.24099609 -6.0625 28.375 C-6.83335937 28.38660156 -7.60421875 28.39820313 -8.3984375 28.41015625 C-9.90277344 28.42369141 -9.90277344 28.42369141 -11.4375 28.4375 C-12.43523437 28.44910156 -13.43296875 28.46070313 -14.4609375 28.47265625 C-17.0625 28.375 -17.0625 28.375 -19.0625 27.375 C-19.0625 24.405 -19.0625 21.435 -19.0625 18.375 C-11.1425 18.375 -3.2225 18.375 4.9375 18.375 C5.06125 21.901875 5.185 25.42875 5.3125 29.0625 C5.36712402 30.16553467 5.42174805 31.26856934 5.47802734 32.4050293 C5.59788614 39.45027791 5.59788614 39.45027791 3.69384766 42.11645508 C2.125 43.4375 2.125 43.4375 -1.0625 45.375 C-1.64773438 45.82488281 -2.23296875 46.27476562 -2.8359375 46.73828125 C-9.58651103 50.73923093 -17.52483455 50.22336274 -25.0625 49.375 C-32.61848605 47.27288593 -37.14922521 43.04816332 -41.0625 36.375 C-45.21945989 28.8528821 -44.39748626 20.1920196 -42.140625 12.2109375 C-39.60544487 5.54231151 -35.41937757 0.68057634 -29.0625 -2.625 C-19.65665773 -6.03461782 -8.3297296 -5.92821482 0 0 Z " fill="#262626" transform="translate(325.0625,184.625)"/>
<path d="M0 0 C-0.49730652 4.97306516 -1.55302334 8.63799813 -4 13 C-8.07043497 13.18501977 -10.44052869 12.89096914 -14 11 C-27.5149518 8.15046197 -43.3622059 8.679694 -55.28515625 16.0234375 C-58.32158463 18.22832849 -61.1743541 20.53229732 -64 23 C-64.68964844 23.59039062 -65.37929687 24.18078125 -66.08984375 24.7890625 C-70.83067112 29.16680681 -73.91074039 34.37596327 -77 40 C-80.54991306 39.40099158 -83.54811143 38.44788874 -86.8125 36.9375 C-87.60269531 36.57527344 -88.39289063 36.21304688 -89.20703125 35.83984375 C-89.79871094 35.56269531 -90.39039063 35.28554687 -91 35 C-90.33261732 31.50844913 -88.93386594 28.85877424 -87.125 25.8125 C-86.61195313 24.93207031 -86.09890625 24.05164063 -85.5703125 23.14453125 C-84 21 -84 21 -81 20 C-80.32320067 18.67178131 -79.65794436 17.33765894 -79 16 C-77.125 14.18359375 -77.125 14.18359375 -75 12.4375 C-72.44227537 10.32643684 -70.866865 8.80029749 -69 6 C-48.40909399 -7.40553777 -22.56257758 -10.40677028 0 0 Z " fill="#1B82B6" transform="translate(277,144)"/>
<path d="M0 0 C3.28557761 2.66953181 5.5202399 4.68215912 6 9 C3.16499426 11.08456304 1.63100942 12.02685146 -1.9375 11.875 C-5 11 -5 11 -7.875 9.4375 C-12.77863799 7.18182652 -17.8297147 7.27657157 -23 9 C-23 11.31 -23 13.62 -23 16 C-22.40574219 16.08975098 -21.81148438 16.17950195 -21.19921875 16.27197266 C-18.46184934 16.69928752 -15.73152433 17.16184434 -13 17.625 C-12.06542969 17.76550781 -11.13085938 17.90601563 -10.16796875 18.05078125 C-3.53692256 19.21005506 1.13441957 21.27210983 6 26 C8.39495575 29.8918031 8.38844718 33.49401269 8 38 C6.660551 42.85550261 5.12008754 45.23336577 0.9375 47.875 C-4.39626813 50.87462379 -8.0375755 51.24353371 -14.125 51.3125 C-14.95515625 51.34150391 -15.7853125 51.37050781 -16.640625 51.40039062 C-22.60890443 51.46119598 -27.01318036 50.34927896 -32 47 C-35.16430777 43.83569223 -36.4916752 41.44784203 -37 37 C-33.27034861 34.96564469 -31.33094958 34 -27 34 C-26.443125 34.78375 -25.88625 35.5675 -25.3125 36.375 C-22.04337527 40.08589834 -18.82482345 40.59071645 -14 41 C-11.24296263 40.87240158 -8.72589947 40.49561809 -6 40 C-4.95785309 35.38492226 -4.95785309 35.38492226 -6 31 C-8.03947738 30.29869169 -8.03947738 30.29869169 -10.515625 29.81640625 C-11.89814453 29.50799805 -11.89814453 29.50799805 -13.30859375 29.19335938 C-15.25379251 28.77616203 -17.1991033 28.35948668 -19.14453125 27.94335938 C-28.37178756 25.88358936 -28.37178756 25.88358936 -32 23 C-34.66551731 18.22045173 -35.58284658 14.4399014 -35 9 C-33.79257863 5.18709042 -32.91280283 2.75632234 -29.8125 0.1875 C-20.10566762 -3.91094034 -9.63944172 -4.7912018 0 0 Z " fill="#373737" transform="translate(392,183)"/>
<path d="M0 0 C1.75 0.0625 1.75 0.0625 4 1 C9.35454619 9.1083128 10.05049668 16.80813809 8.64453125 26.43359375 C6.53838113 34.36346099 0.31702445 41.27510277 -6.625 45.5 C-15.52751863 49.45667495 -23.5930368 50.47027214 -32.796875 47.04296875 C-39.11997956 44.04958415 -43.54735551 40.04212786 -47 34 C-44.625 33.875 -44.625 33.875 -42 34 C-41.34 34.66 -40.68 35.32 -40 36 C-39.01 35.34 -38.02 34.68 -37 34 C-37 34.66 -37 35.32 -37 36 C-36.38125 35.34 -35.7625 34.68 -35.125 34 C-33 32 -33 32 -31 32 C-31 31.34 -31 30.68 -31 30 C-30.34 30 -29.68 30 -29 30 C-28.67 29.01 -28.34 28.02 -28 27 C-27.030625 26.195625 -26.06125 25.39125 -25.0625 24.5625 C-21.99394819 22.34116173 -21.99394819 22.34116173 -20.9375 19.875 C-20 18 -20 18 -17.8125 16.75 C-15.06874385 15.04277395 -13.66795331 13.57654397 -11.625 11.125 C-8.42743974 7.31036671 -5.10162975 4.78910823 -1 2 C-0.67 1.34 -0.34 0.68 0 0 Z " fill="#0691C4" transform="translate(289,75)"/>
<path d="M0 0 C4.13701735 0.84142726 6.69767099 3.20972365 9.890625 5.875 C10.51066406 6.37451172 11.13070313 6.87402344 11.76953125 7.38867188 C17.54513792 12.07747084 17.54513792 12.07747084 19.765625 14.5625 C19.765625 15.2225 19.765625 15.8825 19.765625 16.5625 C20.425625 16.5625 21.085625 16.5625 21.765625 16.5625 C31.38698594 27.32432398 45.765625 46.62658556 45.765625 61.5625 C43.49582835 61.67044277 41.22457304 61.74806176 38.953125 61.8125 C37.05626953 61.88210937 37.05626953 61.88210937 35.12109375 61.953125 C31.765625 61.5625 31.765625 61.5625 30.04296875 60.015625 C28.68613004 57.40983078 27.36678339 54.79046035 26.11621094 52.13183594 C18.79089873 36.59396149 8.14908427 23.09620499 -6.234375 13.5625 C-7.421875 11.3125 -7.421875 11.3125 -7.234375 8.5625 C-4.01386936 1.01048459 -4.01386936 1.01048459 0 0 Z " fill="#1F93C3" transform="translate(314.234375,109.4375)"/>
<path d="M0 0 C0.969375 0.78375 1.93875 1.5675 2.9375 2.375 C2.14245154 6.15148021 1.09376625 8.00780031 -2.0625 10.375 C-5.31977718 10.28696548 -7.52368383 9.16537098 -10.5 7.8125 C-15.3782336 5.84408995 -18.27387408 5.69532215 -23.1875 7.5625 C-27.60625054 10.34823403 -29.51386394 12.93809604 -31.375 17.8125 C-32.72474239 23.9039461 -31.70043685 30.23701297 -31.0625 36.375 C-31.7225 36.375 -32.3825 36.375 -33.0625 36.375 C-33.3925 37.365 -33.7225 38.355 -34.0625 39.375 C-35.7125 39.375 -37.3625 39.375 -39.0625 39.375 C-43.73937561 31.22818443 -44.95974651 24.51213529 -43 15.25 C-41.01577588 8.23306198 -37.77186772 3.61317333 -32.1875 -1 C-22.30550777 -6.13863596 -9.31508154 -6.62948343 0 0 Z " fill="#212121" transform="translate(325.0625,184.625)"/>
<path d="M0 0 C4.12739432 2.36943007 6.4440825 4.5781797 8.375 8.9375 C9.19242184 12.16660612 9.25584179 14.71692219 8.375 17.9375 C6.11327992 21.58206523 3.53956324 25.17926748 -0.62109375 26.63671875 C-6.51781531 27.52180171 -11.09277522 27.57164991 -16.14453125 24.25390625 C-19.60315651 21.17855872 -20.47125376 17.87777758 -20.8203125 13.47265625 C-20.71821226 9.70061975 -20.4769613 6.99129752 -18.05859375 4 C-12.20863485 -1.08054885 -7.70082133 -2.25713729 0 0 Z " fill="#2D508E" transform="translate(187.625,281.0625)"/>
<path d="M0 0 C1.17578125 2.40625 1.17578125 2.40625 2.3125 5.5 C4.30650738 10.59444569 6.65240496 14.84184662 9.86328125 19.2578125 C11 21 11 21 11 23 C11.99 23.33 12.98 23.66 14 24 C14 24.66 14 25.32 14 26 C14.99 26.33 15.98 26.66 17 27 C17 27.66 17 28.32 17 29 C15 28 13 27 11 26 C10.94577053 27.4370809 10.90710277 28.87475462 10.875 30.3125 C10.85179687 31.11300781 10.82859375 31.91351563 10.8046875 32.73828125 C10.84182678 35.28388576 10.84182678 35.28388576 13 38 C16.56769552 38.73606499 16.56769552 38.73606499 20 39 C18.35 40.32 16.7 41.64 15 43 C19.95 45.31 24.9 47.62 30 50 C30 50.33 30 50.66 30 51 C19.60215441 50.76368533 10.94534773 43.37620921 3.546875 36.69921875 C2 35 2 35 2 33 C1.34 33 0.68 33 0 33 C-7.65771057 24.10826543 -12.95215292 14.5424108 -15 3 C-3 -1 -3 -1 0 0 Z " fill="#376EA6" transform="translate(197,218)"/>
<path d="M0 0 C4.85199177 0.32894859 8.9415873 1.39802719 12.359375 5.0234375 C14.81915818 9.14719165 14.39792003 13.61886564 13.6875 18.25 C11.99399546 21.91925984 9.51529141 23.81729086 5.9375 25.6875 C1.64832355 26.42985746 -2.1075304 26.46028645 -6.3125 25.25 C-9.6326312 22.63627969 -11.71215927 20.13551196 -13.3125 16.25 C-13.64423739 11.5716522 -12.91901879 7.47985735 -10 3.75 C-6.33622415 0.34183642 -4.84940657 0.36599295 0 0 Z " fill="#1966A2" transform="translate(186.3125,187.75)"/>
<path d="M0 0 C1.30302768 3.90908303 0.05907909 6.19307626 -1.3125 9.875 C-4.49890948 19.06702955 -6.09851496 27.51846951 -5.9375 37.265625 C-5.92033936 38.3911377 -5.90317871 39.51665039 -5.88549805 40.67626953 C-5.83728653 42.95398153 -5.76370845 45.23131445 -5.66333008 47.50732422 C-5.63650146 48.55936035 -5.60967285 49.61139648 -5.58203125 50.6953125 C-5.54311768 51.64422363 -5.5042041 52.59313477 -5.46411133 53.57080078 C-6 56 -6 56 -8.32299805 57.89404297 C-11 59 -11 59 -14.25 58 C-17 56 -17 56 -17.66357422 53.8112793 C-18.05687827 50.52470738 -18.12974641 47.33025256 -18.1328125 44.01953125 C-18.13376923 43.36546799 -18.13472595 42.71140472 -18.13571167 42.03752136 C-18.13638889 40.66344099 -18.13456674 39.28935734 -18.13037109 37.9152832 C-18.12499025 35.80868417 -18.13034479 33.70229582 -18.13671875 31.59570312 C-18.13605839 30.25781203 -18.13477811 28.91992106 -18.1328125 27.58203125 C-18.13168457 26.36749268 -18.13055664 25.1529541 -18.12939453 23.90161133 C-18 21 -18 21 -17 19 C-16.34 19 -15.68 19 -15 19 C-15.103125 18.2575 -15.20625 17.515 -15.3125 16.75 C-15 14 -15 14 -12.625 11.6875 C-10 10 -10 10 -8 10 C-7.67 9.01 -7.34 8.02 -7 7 C-5.6875 5.5625 -5.6875 5.5625 -4 4 C-3.278125 3.278125 -2.55625 2.55625 -1.8125 1.8125 C-1.214375 1.214375 -0.61625 0.61625 0 0 Z " fill="#16619D" transform="translate(150,164)"/>
<path d="M0 0 C3.61322401 1.806612 4.83748791 2.66418971 7.25 5.625 C8.03117188 6.57246094 8.03117188 6.57246094 8.828125 7.5390625 C9.40820312 8.26222656 9.40820312 8.26222656 10 9 C9.34 9 8.68 9 8 9 C8.33 13.29 8.66 17.58 9 22 C12.08339204 22.02699468 15.16654719 22.0468366 18.25 22.0625 C19.12269531 22.07087891 19.99539062 22.07925781 20.89453125 22.08789062 C21.73886719 22.09111328 22.58320313 22.09433594 23.453125 22.09765625 C24.61569824 22.10551147 24.61569824 22.10551147 25.80175781 22.11352539 C28.02381883 21.99876991 29.8949747 21.72176415 32 21 C33.10836423 19.11683841 33.10836423 19.11683841 34 17 C35.5 15.25 35.5 15.25 37 14 C37.66 14 38.32 14 39 14 C39.33 13.34 39.66 12.68 40 12 C41.43049123 20.87593956 41.43049123 20.87593956 39.875 24.9375 C36.76734493 28.35592058 33.50416859 30.147321 29 31 C26.75646063 31.08173345 24.51063108 31.10750277 22.265625 31.09765625 C20.51427246 31.09390991 20.51427246 31.09390991 18.72753906 31.09008789 C17.24995117 31.08098389 15.77236328 31.07187988 14.25 31.0625 C9.5475 31.041875 4.845 31.02125 0 31 C0 20.77 0 10.54 0 0 Z " fill="#030303" transform="translate(215,199)"/>
<path d="M0 0 C3.75903172 0.38554171 6.80045361 1.27894577 10.1875 2.875 C14.49733495 4.8877148 18.81277439 6.1435258 23.421875 7.2890625 C26.04484423 8.01236614 28.49401799 8.94532412 31 10 C29.02 10.99 29.02 10.99 27 12 C27 12.66 27 13.32 27 14 C27.66 14 28.32 14 29 14 C29 14.66 29 15.32 29 16 C29.66 16 30.32 16 31 16 C31 16.66 31 17.32 31 18 C31.66 18 32.32 18 33 18 C33 18.66 33 19.32 33 20 C33.66 20 34.32 20 35 20 C35 20.66 35 21.32 35 22 C27.80127977 22.50517335 21.69641173 21.05795777 14.8046875 19.078125 C10.3980753 17.82943407 5.95792787 16.80390925 1.48828125 15.80859375 C-1.16969268 14.94485654 -2.87770599 13.79425793 -5 12 C-4.52389341 7.00088076 -2.96837781 4.02167317 0 0 Z " fill="#26498A" transform="translate(200,298)"/>
<path d="M0 0 C0.52938657 1.95603851 1.04826801 3.91492289 1.5625 5.875 C1.99755859 7.51082031 1.99755859 7.51082031 2.44140625 9.1796875 C3 12 3 12 2 14 C0.16655876 14.6081365 -1.6941672 15.13441936 -3.5625 15.625 C-19.91976338 20.4476035 -33.66156538 29.38371456 -46 41 C-46.60585937 41.52980469 -47.21171875 42.05960938 -47.8359375 42.60546875 C-66.66910578 59.80289237 -74.47250151 86.29620289 -76.2890625 110.91796875 C-76.78947823 132.14014485 -71.04856061 152.55067544 -59.11303711 170.10205078 C-58.02683852 171.70283046 -57.00624753 173.34779273 -56 175 C-56.33 175.66 -56.66 176.32 -57 177 C-74.89449731 154.64349817 -80.68202705 127.60642792 -78.7578125 99.45703125 C-76.24182794 79.20078818 -66.88859515 58.8869766 -53 44 C-52.5369043 43.50129395 -52.07380859 43.00258789 -51.59667969 42.48876953 C-45.28657949 35.75591344 -38.86918495 29.89853732 -31 25 C-30.11183594 24.41734375 -29.22367188 23.8346875 -28.30859375 23.234375 C-20.24073972 18.18510581 -8.77394294 12 1 12 C0.01 8.37 -0.98 4.74 -2 1 C-4.31 1.33 -6.62 1.66 -9 2 C-5.5647952 -0.29013653 -4.014669 -0.17842973 0 0 Z " fill="#E8F3F9" transform="translate(222,92)"/>
<path d="M0 0 C1.65 0.66 3.3 1.32 5 2 C4.67 2.99 4.34 3.98 4 5 C4.66 5.33 5.32 5.66 6 6 C6 7.32 6 8.64 6 10 C4.05859375 11.7890625 4.05859375 11.7890625 1.4375 13.625 C-5.1157862 18.58876572 -9.47390263 24.60875744 -13 32 C-14.60495567 31.88557539 -16.20898119 31.75805306 -17.8125 31.625 C-18.70582031 31.55539063 -19.59914062 31.48578125 -20.51953125 31.4140625 C-23 31 -23 31 -26 29 C-25.33261732 25.50844913 -23.93386594 22.85877424 -22.125 19.8125 C-21.61195313 18.93207031 -21.09890625 18.05164063 -20.5703125 17.14453125 C-19 15 -19 15 -16 14 C-15.67 13.01 -15.34 12.02 -15 11 C-14.34 11 -13.68 11 -13 11 C-12.67 12.32 -12.34 13.64 -12 15 C-10.70366379 13.93354885 -10.70366379 13.93354885 -10.9375 11.4375 C-10.958125 10.633125 -10.97875 9.82875 -11 9 C-10.34 9.66 -9.68 10.32 -9 11 C-7.68 11 -6.36 11 -5 11 C-4.67 10.34 -4.34 9.68 -4 9 C-4.99 9.33 -5.98 9.66 -7 10 C-7 8.35 -7 6.7 -7 5 C-6.34 5.33 -5.68 5.66 -5 6 C-4.34 5.34 -3.68 4.68 -3 4 C-3 3.67 -3 3.34 -3 3 C-2.01 3 -1.02 3 0 3 C0 2.01 0 1.02 0 0 Z " fill="#1973AA" transform="translate(212,150)"/>
<path d="M0 0 C5.78481114 -0.24215489 11.50758444 0.20990381 16.58203125 3.20703125 C18.4561403 5.48020934 19.39279546 7.46661834 20.58203125 10.20703125 C16.18331742 13.26169363 16.18331742 13.26169363 13.51953125 13.01953125 C11.58203125 12.20703125 11.58203125 12.20703125 9.875 11.171875 C6.82057033 9.88662095 4.26056715 9.94211687 0.95703125 9.95703125 C-0.19023437 9.951875 -1.3375 9.94671875 -2.51953125 9.94140625 C-5.54439051 9.9070369 -5.54439051 9.9070369 -7.41796875 12.20703125 C-7.31484375 13.30015625 -7.21171875 14.39328125 -7.10546875 15.51953125 C-7.41796875 19.20703125 -7.41796875 19.20703125 -8.96875 20.77734375 C-10.74332157 22.02203323 -12.52213233 23.15755038 -14.41796875 24.20703125 C-16.95064763 20.15474504 -17.98007161 17.09579175 -17.11328125 12.30078125 C-15.59130657 7.71775638 -12.96779749 3.52835578 -8.59375 1.26171875 C-5.74161524 0.44021138 -2.9479311 0.25240767 0 0 Z " fill="#0E0E0E" transform="translate(375.41796875,179.79296875)"/>
<path d="M0 0 C1.859375 0.89453125 1.859375 0.89453125 2.90625 2.8203125 C3.25429688 4.00173828 3.25429688 4.00173828 3.609375 5.20703125 C3.85171875 5.98691406 4.0940625 6.76679688 4.34375 7.5703125 C4.859375 9.89453125 4.859375 9.89453125 4.859375 13.89453125 C-8.58280226 19.05710657 -24.20053049 19.57253664 -38.140625 15.89453125 C-38.800625 15.23453125 -39.460625 14.57453125 -40.140625 13.89453125 C-34.530625 14.55453125 -28.920625 15.21453125 -23.140625 15.89453125 C-22.810625 14.90453125 -22.480625 13.91453125 -22.140625 12.89453125 C-20.546875 11.359375 -20.546875 11.359375 -18.640625 9.83203125 C-15.95956099 7.71731358 -15.95956099 7.71731358 -14.140625 4.89453125 C-15.13642578 4.91193359 -15.13642578 4.91193359 -16.15234375 4.9296875 C-24.92269881 5.01931157 -24.92269881 5.01931157 -29.140625 3.89453125 C-29.140625 3.56453125 -29.140625 3.23453125 -29.140625 2.89453125 C-28.23441406 2.90613281 -27.32820312 2.91773438 -26.39453125 2.9296875 C-14.95036519 3.59952615 -14.95036519 3.59952615 -4.1484375 0.79296875 C-2.140625 -0.10546875 -2.140625 -0.10546875 0 0 Z " fill="#2F669E" transform="translate(267.140625,255.10546875)"/>
<path d="M0 0 C0.33 0.66 0.66 1.32 1 2 C1.59941406 2.07605469 2.19882812 2.15210938 2.81640625 2.23046875 C6.22722358 3.43249203 7.31204483 6.27994034 8.9375 9.3125 C9.28232422 9.93680908 9.62714844 10.56111816 9.98242188 11.2043457 C18 26.00127318 18 26.00127318 18 32 C14.04 31.67 10.08 31.34 6 31 C5.34 29.35 4.68 27.7 4 26 C3.01 25.67 2.02 25.34 1 25 C0.67 21.7 0.34 18.4 0 15 C-0.66 15 -1.32 15 -2 15 C-2 14.01 -2 13.02 -2 12 C-2.99 11.67 -3.98 11.34 -5 11 C-5.6875 8.9375 -5.6875 8.9375 -6 7 C-4.68 6.34 -3.36 5.68 -2 5 C-2 4.01 -2 3.02 -2 2 C-1.34 2 -0.68 2 0 2 C0 1.34 0 0.68 0 0 Z " fill="#1183B7" transform="translate(340,138)"/>
<path d="M0 0 C4.47952209 2.23976105 6.30071578 4.86109752 9 9 C9.99 9.33 10.98 9.66 12 10 C13.421875 11.48828125 13.421875 11.48828125 14.75 13.3125 C15.19859375 13.90675781 15.6471875 14.50101562 16.109375 15.11328125 C17 17 17 17 16.77734375 19.02734375 C15.45944733 22.37175426 13.55255717 24.50416632 11 27 C8.08203125 27.4609375 8.08203125 27.4609375 5 27 C2.8046875 25.0234375 2.8046875 25.0234375 0.875 22.375 C-0.13433594 21.00408203 -0.13433594 21.00408203 -1.1640625 19.60546875 C-1.76992187 18.74566406 -2.37578125 17.88585937 -3 17 C-3.46148437 16.39800781 -3.92296875 15.79601562 -4.3984375 15.17578125 C-5.99136769 13.02363088 -6.97719781 11.08291704 -7.6875 8.5 C-6.56889568 4.43234792 -3.2939636 2.44526379 0 0 Z " fill="#275290" transform="translate(156,259)"/>
<path d="M0 0 C0.99 0.33 1.98 0.66 3 1 C0.13172523 10.82784501 -7.00878995 20.54860903 -14 28 C-14.99 28.33 -15.98 28.66 -17 29 C-17.27199219 29.5775 -17.54398437 30.155 -17.82421875 30.75 C-19.4822996 33.92293877 -22.06373817 35.80630857 -24.8125 38 C-25.59463867 38.63808594 -25.59463867 38.63808594 -26.39257812 39.2890625 C-27.92197203 40.53396241 -29.46089061 41.76713189 -31 43 C-31.85207031 43.70511719 -32.70414062 44.41023438 -33.58203125 45.13671875 C-57.58235565 63.63131445 -89.89400815 68.6955387 -119.3125 65.25 C-138.51708636 62.52306478 -138.51708636 62.52306478 -145 57 C-139.13361406 57.86642008 -133.55181881 59.45745889 -127.8515625 61.0625 C-98.3868151 68.23444663 -65.77352852 61.45644515 -40.17724609 45.89160156 C-23.34713403 35.23451942 -7.9574044 19.44671019 0 1 C0 0.67 0 0.34 0 0 Z " fill="#E5ECF6" transform="translate(350,257)"/>
<path d="M0 0 C1.9609375 0.015625 1.9609375 0.015625 4.375 0.25 C5.16648437 0.31703125 5.95796875 0.3840625 6.7734375 0.453125 C9.37882948 1.09304584 10.20993439 2.07184178 12 4 C10.37941879 6.62775234 8.75278725 9.25170649 7.125 11.875 C6.66480469 12.62136719 6.20460938 13.36773437 5.73046875 14.13671875 C5.06337891 15.20986328 5.06337891 15.20986328 4.3828125 16.3046875 C3.77010498 17.2944458 3.77010498 17.2944458 3.14501953 18.30419922 C2 20 2 20 0 22 C-3.625 22.125 -3.625 22.125 -7 22 C-7 21.34 -7 20.68 -7 20 C-9.14016269 18.89969761 -9.14016269 18.89969761 -12 19 C-14.62930376 20.87443399 -16.70916181 23.2430478 -18.875 25.625 C-23.30074601 30.3814611 -27.58274416 34.38387782 -33 38 C-33.66 37.67 -34.32 37.34 -35 37 C-34.16597656 36.31035156 -33.33195312 35.62070312 -32.47265625 34.91015625 C-26.24558891 29.72170624 -20.28102299 24.48694643 -14.70703125 18.58203125 C-13 17 -13 17 -11 17 C-10.75378906 16.29359375 -10.50757813 15.5871875 -10.25390625 14.859375 C-8.83565191 11.62522492 -7.04495995 9.08034549 -4.9375 6.25 C-3.86822266 4.80367188 -3.86822266 4.80367188 -2.77734375 3.328125 C-1 1 -1 1 0 0 Z " fill="#5C8BB9" transform="translate(339,255)"/>
<path d="M0 0 C0.969375 0.78375 1.93875 1.5675 2.9375 2.375 C2.14245154 6.15148021 1.09376625 8.00780031 -2.0625 10.375 C-5.31977718 10.28696548 -7.52368383 9.16537098 -10.5 7.8125 C-15.3782336 5.84408995 -18.27387408 5.69532215 -23.1875 7.5625 C-27.7184693 10.41898065 -29.57914212 13.01699452 -31.375 18.0625 C-32.43794674 22.89659692 -31.79732342 27.52913747 -31.0625 32.375 C-33.0625 31.375 -33.0625 31.375 -33.66015625 29.671875 C-34.63253001 24.12084811 -35.33890447 18.20132419 -32.96875 12.953125 C-29.72135161 8.35840174 -26.09538462 5.79078462 -21.0625 3.375 C-22.0525 2.055 -23.0425 0.735 -24.0625 -0.625 C-26.7025 -0.295 -29.3425 0.035 -32.0625 0.375 C-25.63024739 -8.46934733 -7.71338323 -5.48956508 0 0 Z " fill="#282828" transform="translate(325.0625,184.625)"/>
<path d="M0 0 C3 1 3 1 5 2 C5 2.66 5 3.32 5 4 C5.99 3.67 6.98 3.34 8 3 C8.99 3.66 9.98 4.32 11 5 C-3.00849107 21.60609207 -3.00849107 21.60609207 -11 26 C-11.66 25.34 -12.32 24.68 -13 24 C-12.67 23.34 -12.34 22.68 -12 22 C-11.01 22 -10.02 22 -9 22 C-9 21.34 -9 20.68 -9 20 C-9.99 20 -10.98 20 -12 20 C-12 18.68 -12 17.36 -12 16 C-12.99 16 -13.98 16 -15 16 C-15 16.99 -15 17.98 -15 19 C-15.99 19.33 -16.98 19.66 -18 20 C-18.66 19.34 -19.32 18.68 -20 18 C-19.47792969 17.62230469 -18.95585937 17.24460937 -18.41796875 16.85546875 C-11.65908754 11.80110399 -5.85151168 6.04838497 0 0 Z " fill="#1C5898" transform="translate(327,273)"/>
<path d="M0 0 C2.67836558 1.64157891 2.9364948 2.79587613 3.875 5.8125 C4.03136802 9.79988445 3.23894936 11.7162076 1 15 C-1.92909251 16.82078724 -3.61842399 17.01557453 -7.0625 16.875 C-10.59115184 15.82391222 -11.95131497 15.07302755 -14 12 C-14.70910553 8.11983826 -14.56618837 5.05149269 -12.6875 1.5625 C-8.90859916 -1.93648226 -4.64067044 -1.07539545 0 0 Z " fill="#308DBD" transform="translate(291,150)"/>
<path d="M0 0 C1.65 0.33 3.3 0.66 5 1 C4.50269348 5.97306516 3.44697666 9.63799813 1 14 C-3.07043497 14.18501977 -5.44052869 13.89096914 -9 12 C-22.5149518 9.15046197 -38.3622059 9.679694 -50.28515625 17.0234375 C-53.32158463 19.22832849 -56.1743541 21.53229732 -59 24 C-59.68964844 24.59039062 -60.37929687 25.18078125 -61.08984375 25.7890625 C-65.83067112 30.16680681 -68.91074039 35.37596327 -72 41 C-76.75 40.25 -76.75 40.25 -79 38 C-77.02 38.33 -75.04 38.66 -73 39 C-72.74347656 38.11183594 -72.48695313 37.22367188 -72.22265625 36.30859375 C-67.70491785 24.08327609 -56.12984644 16.7701815 -44.9921875 11.26171875 C-38.27867781 8.43082628 -32.38287846 7.64276611 -25.1875 7.6875 C-24.30255859 7.69023926 -23.41761719 7.69297852 -22.50585938 7.69580078 C-14.50498754 7.82403878 -8.105511 9.3520814 -1 13 C-0.814375 11.948125 -0.814375 11.948125 -0.625 10.875 C0.03838345 7.82343613 0.97211955 4.94659062 2 2 C1.01 1.01 1.01 1.01 0 0 Z " fill="#E0F2F8" transform="translate(272,143)"/>
<path d="M0 0 C0.97646484 0.09345703 1.95292969 0.18691406 2.95898438 0.28320312 C4.47008789 0.43885742 4.47008789 0.43885742 6.01171875 0.59765625 C7.03845703 0.69755859 8.06519531 0.79746094 9.12304688 0.90039062 C11.6491559 1.14712686 14.17440126 1.40058964 16.69921875 1.66015625 C15.31840652 5.80259295 13.10096317 6.98218724 9.69921875 9.66015625 C10.68921875 9.33015625 11.67921875 9.00015625 12.69921875 8.66015625 C12.69921875 9.32015625 12.69921875 9.98015625 12.69921875 10.66015625 C15.00921875 10.66015625 17.31921875 10.66015625 19.69921875 10.66015625 C19.69921875 11.32015625 19.69921875 11.98015625 19.69921875 12.66015625 C12.43921875 12.66015625 5.17921875 12.66015625 -2.30078125 12.66015625 C-1.97078125 11.67015625 -1.64078125 10.68015625 -1.30078125 9.66015625 C-1.96078125 9.66015625 -2.62078125 9.66015625 -3.30078125 9.66015625 C-3.30078125 9.00015625 -3.30078125 8.34015625 -3.30078125 7.66015625 C-3.96078125 7.66015625 -4.62078125 7.66015625 -5.30078125 7.66015625 C-5.30078125 7.00015625 -5.30078125 6.34015625 -5.30078125 5.66015625 C-5.96078125 5.66015625 -6.62078125 5.66015625 -7.30078125 5.66015625 C-7.30078125 5.00015625 -7.30078125 4.34015625 -7.30078125 3.66015625 C-7.96078125 3.66015625 -8.62078125 3.66015625 -9.30078125 3.66015625 C-9.63078125 2.67015625 -9.96078125 1.68015625 -10.30078125 0.66015625 C-6.691306 -0.20736932 -3.68803889 -0.36664714 0 0 Z " fill="#204589" transform="translate(236.30078125,308.33984375)"/>
<path d="M0 0 C1.17578125 2.40625 1.17578125 2.40625 2.3125 5.5 C4.30650738 10.59444569 6.65240496 14.84184662 9.86328125 19.2578125 C11 21 11 21 11 23 C11.99 23.33 12.98 23.66 14 24 C14 24.66 14 25.32 14 26 C14.99 26.33 15.98 26.66 17 27 C17 27.66 17 28.32 17 29 C15 28 13 27 11 26 C10.94577053 27.4370809 10.90710277 28.87475462 10.875 30.3125 C10.85179687 31.11300781 10.82859375 31.91351563 10.8046875 32.73828125 C10.84182678 35.28388576 10.84182678 35.28388576 13 38 C16.56769552 38.73606499 16.56769552 38.73606499 20 39 C18.35 40.32 16.7 41.64 15 43 C19.95 45.31 24.9 47.62 30 50 C30 50.33 30 50.66 30 51 C18.86142497 50.74685057 9.61267442 42.40121124 2 35 C2.33 34.34 2.66 33.68 3 33 C3.99 33.66 4.98 34.32 6 35 C5.95875 33.9275 5.9175 32.855 5.875 31.75 C5.99410732 28.17678042 6.44383352 27.00858853 8 24 C7.5280725 19.8682266 5.0916138 16.49577411 3 13 C-1.42268041 5.60824742 -1.42268041 5.60824742 -2 2 C-4.31 2 -6.62 2 -9 2 C-4 -1.33333333 -4 -1.33333333 0 0 Z " fill="#92B2CE" transform="translate(197,218)"/>
<path d="M0 0 C0.515625 0.268125 1.03125 0.53625 1.5625 0.8125 C3.41507451 1.7150363 5.3009392 2.54960313 7.19921875 3.3515625 C10.95390345 4.95358088 14.60439636 6.7278618 18.25 8.5625 C18.86101562 8.86607422 19.47203125 9.16964844 20.1015625 9.48242188 C22.85881307 10.86405726 25.42940714 12.28627143 28 14 C26.35 14.33 24.7 14.66 23 15 C23 14.34 23 13.68 23 13 C21.906875 13.350625 20.81375 13.70125 19.6875 14.0625 C16 15 16 15 13 14 C12.360625 14.33 11.72125 14.66 11.0625 15 C9 16 9 16 6.75 15.625 C6.1725 15.41875 5.595 15.2125 5 15 C5.66 14.67 6.32 14.34 7 14 C6.05125 13.731875 5.1025 13.46375 4.125 13.1875 C1 12 1 12 -1 9 C-1.33333333 2.66666667 -1.33333333 2.66666667 0 0 Z " fill="#245A92" transform="translate(208,244)"/>
<path d="M0 0 C2.10306598 3.41748222 2.40603518 6.02085525 2 10 C0.16114985 14.16160823 -1.93711401 16.0181044 -6 18 C-9.60430701 19.32157924 -13.19719092 19.07313094 -17 19 C-17.33 18.01 -17.66 17.02 -18 16 C-17.01 15.01 -16.02 14.02 -15 13 C-21.93 12.505 -21.93 12.505 -29 12 C-29 11.67 -29 11.34 -29 11 C-27.74703125 10.93941406 -26.4940625 10.87882813 -25.203125 10.81640625 C-23.55207276 10.73197744 -21.90103165 10.64733061 -20.25 10.5625 C-19.425 10.52318359 -18.6 10.48386719 -17.75 10.44335938 C-16.95078125 10.40146484 -16.1515625 10.35957031 -15.328125 10.31640625 C-14.5949707 10.27974854 -13.86181641 10.24309082 -13.10644531 10.20532227 C-10.96097364 9.99619597 -9.04672059 9.680849 -7 9 C-5.89163577 7.11683841 -5.89163577 7.11683841 -5 5 C-3.5 3.25 -3.5 3.25 -2 2 C-1.34 2 -0.68 2 0 2 C0 1.34 0 0.68 0 0 Z " fill="#070707" transform="translate(254,211)"/>
<path d="M0 0 C2.4375 1.5 2.4375 1.5 4 4 C4.62303037 7.51870564 4.72132966 10.75771003 2.875 13.9375 C0.1005035 15.50971468 -1.79268852 16 -5 16 C-7.93250404 14.02374728 -9.68074515 12.55109669 -10.4140625 8.98828125 C-10.53385707 6.04242398 -10.3311119 3.62326946 -8.9375 1 C-5.82090489 -0.60856522 -3.43737531 -0.42213381 0 0 Z " fill="#185A98" transform="translate(283,249)"/>
<path d="M0 0 C5.54050113 0.56825653 10.03715966 2.62886517 15 5 C9.85714286 9.42857143 9.85714286 9.42857143 6 10 C5.67 11.98 5.34 13.96 5 16 C0.78087253 15.5205537 -1.79663178 14.83374881 -5 12 C-4.52389341 7.00088076 -2.96837781 4.02167317 0 0 Z " fill="#506CA2" transform="translate(200,298)"/>
<path d="M0 0 C6.48710125 2.86195643 9.75840887 9.00889411 12.375 15.3125 C14.13439943 25.69295665 13.36803267 35.31815158 7.48828125 44.3125 C6.75158203 45.1478125 6.75158203 45.1478125 6 46 C5.34 46 4.68 46 4 46 C3.78214844 46.59425781 3.56429687 47.18851563 3.33984375 47.80078125 C0.18313942 52.9821939 -7.22442463 55.31643475 -12.88671875 56.7109375 C-19.46154818 57.55506681 -24.85510418 56.35932009 -31 54 C-27.98968256 53.06576355 -27.13349732 52.95550089 -24 54 C-15.96551066 55.02104969 -8.31915583 52.98296214 -1.6640625 48.38671875 C5.26787884 42.5757419 9.40115825 36.41486543 10.2578125 27.23828125 C10.58883418 18.62068346 8.79452355 12.02740159 3.875 4.9375 C2.14275852 2.93315619 2.14275852 2.93315619 0 2 C0 1.34 0 0.68 0 0 Z " fill="#EDF9FC" transform="translate(287,69)"/>
<path d="M0 0 C0.66 0.66 1.32 1.32 2 2 C3.2684375 2.37125 3.2684375 2.37125 4.5625 2.75 C7 4 7 4 8 6.75 C8 10.59714553 6.94831092 12.72683765 5 16 C3.39504433 15.88557539 1.79101881 15.75805306 0.1875 15.625 C-1.15248047 15.52058594 -1.15248047 15.52058594 -2.51953125 15.4140625 C-5 15 -5 15 -8 13 C-7.36884161 9.84420806 -6.27895408 7.52724785 -4.5625 4.8125 C-4.13066406 4.11769531 -3.69882813 3.42289063 -3.25390625 2.70703125 C-2 1 -2 1 0 0 Z " fill="#166EA6" transform="translate(194,166)"/>
<path d="M0 0 C9.57 0 19.14 0 29 0 C29 0.33 29 0.66 29 1 C19.76 1 10.52 1 1 1 C1 17.17 1 33.34 1 50 C7.8990625 49.8453125 7.8990625 49.8453125 14.9375 49.6875 C16.36956787 49.66260498 17.80163574 49.63770996 19.27709961 49.61206055 C29.51985467 49.4690892 29.51985467 49.4690892 39 46 C41.64148075 42.23296218 41.07465991 38.63913314 40.625 34.1875 C40.51414063 33.02605469 40.40328125 31.86460937 40.2890625 30.66796875 C40.19367188 29.78753906 40.09828125 28.90710938 40 28 C41.48046875 29.12890625 41.48046875 29.12890625 43 31 C43.36328125 33.77734375 43.36328125 33.77734375 43.3125 36.9375 C43.30863281 37.97777344 43.30476563 39.01804688 43.30078125 40.08984375 C43.00468158 42.95470416 42.55940077 44.60675299 41 47 C35.5156207 51.00211463 30.36089109 51.12494194 23.73046875 51.09765625 C22.48418701 51.09515869 21.23790527 51.09266113 19.95385742 51.09008789 C18.38095947 51.08098389 16.80806152 51.07187988 15.1875 51.0625 C7.6696875 51.0315625 7.6696875 51.0315625 0 51 C0 34.17 0 17.34 0 0 Z " fill="#B8B8B8" transform="translate(214,180)"/>
<path d="M0 0 C6.59831822 -0.37193025 13.14847027 -0.45609699 19 3 C20.87410905 5.27317809 21.81076421 7.25958709 23 10 C18.60128617 13.05466238 18.60128617 13.05466238 15.9375 12.8125 C14 12 14 12 12.23828125 10.98828125 C9.52357463 9.78964116 7.20365632 9.58597545 4.25 9.375 C3.26515625 9.30023438 2.2803125 9.22546875 1.265625 9.1484375 C0.51796875 9.09945312 -0.2296875 9.05046875 -1 9 C-1 8.67 -1 8.34 -1 8 C-0.236875 7.95875 0.52625 7.9175 1.3125 7.875 C4.32405113 7.22176391 4.32405113 7.22176391 5.8125 3.9375 C6.204375 2.968125 6.59625 1.99875 7 1 C4.69 1 2.38 1 0 1 C0 0.67 0 0.34 0 0 Z " fill="#151515" transform="translate(373,180)"/>
<path d="M0 0 C3.63 0 7.26 0 11 0 C11.33 0.66 11.66 1.32 12 2 C10.58902133 4.45669355 9.13956406 6.77914624 7.5625 9.125 C7.12873047 9.78371094 6.69496094 10.44242187 6.24804688 11.12109375 C5.17250886 12.75212943 4.08715514 14.37668453 3 16 C0.35247996 13.42215154 -1.94432065 11.08351902 -4 8 C-2.68 5.36 -1.36 2.72 0 0 Z " fill="#175F9C" transform="translate(339,257)"/>
<path d="M0 0 C3.18706942 1.43561686 5.62169105 3.20266329 8.25 5.5 C8.95640625 6.1084375 9.6628125 6.716875 10.390625 7.34375 C12 9 12 9 12 11 C12.66 11 13.32 11 14 11 C23.62136094 21.76182398 38 41.06408556 38 56 C35.73020335 56.10794277 33.45894804 56.18556176 31.1875 56.25 C29.29064453 56.31960937 29.29064453 56.31960937 27.35546875 56.390625 C24 56 24 56 21.98828125 54.171875 C21 52 21 52 22 49 C22.20367187 49.63421875 22.40734375 50.2684375 22.6171875 50.921875 C23.87221871 53.29064565 23.87221871 53.29064565 26.8203125 53.828125 C27.91085937 53.96734375 29.00140625 54.1065625 30.125 54.25 C31.22070312 54.39953125 32.31640625 54.5490625 33.4453125 54.703125 C34.70988281 54.85007812 34.70988281 54.85007812 36 55 C30.82279815 40.86928438 24.55132376 27.48152968 14.62890625 16.015625 C13.06743713 14.08344739 12.01266148 12.25940552 11 10 C10.34 10 9.68 10 9 10 C5.65354983 6.91774326 2.7760079 3.59852875 0 0 Z " fill="#E9F5F9" transform="translate(322,115)"/>
<path d="M0 0 C11.25 -0.26785714 11.25 -0.26785714 15 2 C12.6875 4.5 12.6875 4.5 10 7 C9.01 7 8.02 7 7 7 C6.95875 7.556875 6.9175 8.11375 6.875 8.6875 C6 11 6 11 0 16 C0 10.72 0 5.44 0 0 Z " fill="#020102" transform="translate(216,181)"/>
<path d="M0 0 C2.0625 0.4375 2.0625 0.4375 4 1 C3.01 1.33 2.02 1.66 1 2 C-0.22445284 3.62948064 -0.22445284 3.62948064 -1.1875 5.5625 C-1.785625 6.696875 -2.38375 7.83125 -3 9 C-4.32 8.67 -5.64 8.34 -7 8 C-6.67 8.99 -6.34 9.98 -6 11 C-6.99 11 -7.98 11 -9 11 C-8.67 11.66 -8.34 12.32 -8 13 C-9.32 12.67 -10.64 12.34 -12 12 C-11.01 13.485 -11.01 13.485 -10 15 C-11.32 14.67 -12.64 14.34 -14 14 C-14 14.66 -14 15.32 -14 16 C-13.34 16 -12.68 16 -12 16 C-12.33 16.99 -12.66 17.98 -13 19 C-14.65 18.67 -16.3 18.34 -18 18 C-18 19.32 -18 20.64 -18 22 C-18.66 22 -19.32 22 -20 22 C-20.66 20.35 -21.32 18.7 -22 17 C-21.16855469 16.29423828 -21.16855469 16.29423828 -20.3203125 15.57421875 C-19.59585938 14.95160156 -18.87140625 14.32898438 -18.125 13.6875 C-17.40570313 13.07261719 -16.68640625 12.45773438 -15.9453125 11.82421875 C-13.80820669 9.9587676 -13.80820669 9.9587676 -12 7 C-10.18590988 5.89000878 -8.3252209 4.85454748 -6.4375 3.875 C-3.00068643 2.24950145 -3.00068643 2.24950145 0 0 Z " fill="#378DC5" transform="translate(220,143)"/>
<path d="M0 0 C0.99 0.33 1.98 0.66 3 1 C2.195625 1.61875 1.39125 2.2375 0.5625 2.875 C-2.03874519 4.74164041 -2.03874519 4.74164041 -3 7 C-3.40802543 11.82988242 -3.64127913 16.77395339 -1 21 C2.51987282 22.75993641 7.13469416 22.43801677 11 22 C14.58552881 20.36312815 15.79315055 19.31027417 18 16 C18.3168217 13.62244051 18.3168217 13.62244051 18.25 11.0625 C18.25515625 10.20785156 18.2603125 9.35320312 18.265625 8.47265625 C17.98713633 5.88025433 17.30669172 4.23485766 16 2 C19.875 3.75 19.875 3.75 21 6 C21.58413159 11.10697902 22.16675286 16.31065255 18.875 20.5625 C14.49457941 24.27633484 11.09284706 25.23761792 5.4375 24.9375 C0.91678924 24.29820757 -1.18647366 22.66611007 -4 19 C-6.27594444 15.19367913 -6.19425283 12.56669327 -5.625 8.26171875 C-4.61700016 4.61401935 -2.65029553 2.65029553 0 0 Z " fill="#EBF3F8" transform="translate(179,189)"/>
<path d="M0 0 C0.99 0.33 1.98 0.66 3 1 C2.61094382 3.72339328 1.93262433 5.08903214 0.25 7.3125 C-2 9 -2 9 -4.3125 8.9375 C-7 8 -7 8 -10.4375 6.4375 C-15.3157336 4.46908995 -18.21137408 4.32032215 -23.125 6.1875 C-27.6559693 9.04398065 -29.51664212 11.64199452 -31.3125 16.6875 C-32.37544674 21.52159692 -31.73482342 26.15413747 -31 31 C-33 30 -33 30 -33.59765625 28.296875 C-34.57350949 22.72598464 -35.3138642 16.77322342 -32.8359375 11.54296875 C-30.16626766 7.85334812 -27.34784927 4.54590196 -23 3 C-16.42351191 2.29393533 -11.83050957 2.72922634 -6 6 C-3.74992715 6.10546369 -3.74992715 6.10546369 -2 5 C-0.48554206 2.67266211 -0.48554206 2.67266211 0 0 Z " fill="#EDEDED" transform="translate(325,186)"/>
<path d="M0 0 C1.984375 0.83203125 1.984375 0.83203125 3.03125 2.7578125 C3.37929688 3.93923828 3.37929688 3.93923828 3.734375 5.14453125 C3.97671875 5.92441406 4.2190625 6.70429688 4.46875 7.5078125 C4.984375 9.83203125 4.984375 9.83203125 4.984375 13.83203125 C-8.45780226 18.99460657 -24.07553049 19.51003664 -38.015625 15.83203125 C-38.675625 15.17203125 -39.335625 14.51203125 -40.015625 13.83203125 C-38.38367188 14.07373047 -38.38367188 14.07373047 -36.71875 14.3203125 C-31.40255876 14.98074523 -26.11708293 15.02304472 -20.765625 15.01953125 C-19.75234131 15.02017578 -18.73905762 15.02082031 -17.69506836 15.02148438 C-10.54681367 14.97101126 -4.01267911 14.36563215 2.984375 12.83203125 C1.994375 9.20203125 1.004375 5.57203125 -0.015625 1.83203125 C-1.335625 1.50203125 -2.655625 1.17203125 -4.015625 0.83203125 C-2.015625 -0.16796875 -2.015625 -0.16796875 0 0 Z " fill="#E8F1F7" transform="translate(267.015625,255.16796875)"/>
<path d="M0 0 C0.66 0 1.32 0 2 0 C2.17479953 3.56187657 2.28101143 7.12264773 2.375 10.6875 C2.42527344 11.69490234 2.47554688 12.70230469 2.52734375 13.74023438 C2.67226282 21.0586473 2.67226282 21.0586473 0.75634766 23.74145508 C-0.8125 25.0625 -0.8125 25.0625 -4 27 C-4.58523438 27.44988281 -5.17046875 27.89976562 -5.7734375 28.36328125 C-10.36425578 31.08418087 -14.87668853 31.38674841 -20.125 31.4375 C-20.8061084 31.4475708 -21.4872168 31.4576416 -22.18896484 31.46801758 C-26.82909069 31.38840481 -30.01827271 30.33817942 -34 28 C-33.34 27.67 -32.68 27.34 -32 27 C-31.195625 27.309375 -30.39125 27.61875 -29.5625 27.9375 C-21.98361423 30.19786944 -15.17840229 29.67102163 -8.0703125 26.265625 C-7.38710938 25.84796875 -6.70390625 25.4303125 -6 25 C-5.10667969 24.5153125 -4.21335937 24.030625 -3.29296875 23.53125 C0.29835538 19.56672182 -0.21849782 15.42319105 -0.1875 10.25 C-0.16236328 9.26644531 -0.13722656 8.28289062 -0.11132812 7.26953125 C-0.05250339 4.84595234 -0.01619081 2.42417722 0 0 Z " fill="#FCFCFC" transform="translate(328,203)"/>
<path d="M0 0 C4.51790439 2.19789943 6.27516103 4.27938809 8 9 C8.59334221 14.43897024 7.79358082 18.28583237 5 23 C-1.38376267 28.065235 -6.30174241 29.20247679 -14.25 29.25 C-15.09691406 29.270625 -15.94382812 29.29125 -16.81640625 29.3125 C-21.9982676 29.34473553 -25.47160723 28.81174714 -30 26 C-29.34 25.67 -28.68 25.34 -28 25 C-27.27167969 25.30164063 -26.54335938 25.60328125 -25.79296875 25.9140625 C-18.91713122 28.58746507 -10.28287612 27.81973255 -3.375 25.5 C0.73389637 23.57078177 2.84396306 21.4513259 4.51171875 17.22265625 C5.36904747 13.32009593 5.20963428 9.80922098 4 6 C2.08378425 3.579887 2.08378425 3.579887 0 2 C0 1.34 0 0.68 0 0 Z " fill="#EEEEEE" transform="translate(392,205)"/>
<path d="M0 0 C0.99 0.33 1.98 0.66 3 1 C1.700625 1.7734375 1.700625 1.7734375 0.375 2.5625 C-7.50668811 7.87285724 -10.97221554 14.86599743 -13 24 C-13.628238 33.10945102 -11.5429581 41.05905959 -5.76171875 48.23828125 C-2.88300294 51.11699706 0.41629732 53.10809605 4 55 C2.3125 55.74609375 2.3125 55.74609375 0 56 C-7.18174691 51.31575162 -12.0371773 45.31574923 -14.57421875 37.15234375 C-16.18441888 29.01270823 -15.85117528 19.45040452 -12 12 C-8.49862363 7.37713995 -4.83885362 3.22590242 0 0 Z " fill="#EBF6F9" transform="translate(252,66)"/>
<path d="M0 0 C2.475 0.495 2.475 0.495 5 1 C4.50269348 5.97306516 3.44697666 9.63799813 1 14 C-3.07043497 14.18501977 -5.44052869 13.89096914 -9 12 C-14.44554485 10.76315701 -19.8259239 10.88604637 -25.375 10.9375 C-26.76525391 10.94426758 -26.76525391 10.94426758 -28.18359375 10.95117188 C-30.45579709 10.96288426 -32.72786388 10.97928628 -35 11 C-34.67 10.34 -34.34 9.68 -34 9 C-30.37528143 8.88216719 -26.75106597 8.81221192 -23.125 8.75 C-22.11179688 8.71648437 -21.09859375 8.68296875 -20.0546875 8.6484375 C-12.86884262 8.55631128 -7.44900854 9.82823922 -1 13 C-0.85691406 12.24332031 -0.71382813 11.48664063 -0.56640625 10.70703125 C0.06115723 7.7077106 0.99149504 4.89104756 2 2 C1.34 1.34 0.68 0.68 0 0 Z " fill="#EDF7F9" transform="translate(272,143)"/>
<path d="M0 0 C2.4375 1.5 2.4375 1.5 4 4 C4.62303037 7.51870564 4.72132966 10.75771003 2.875 13.9375 C0.1005035 15.50971468 -1.79268852 16 -5 16 C-7.93250404 14.02374728 -9.68074515 12.55109669 -10.4140625 8.98828125 C-10.53385707 6.04242398 -10.3311119 3.62326946 -8.9375 1 C-5.82090489 -0.60856522 -3.43737531 -0.42213381 0 0 Z M-6 1 C-7.01457095 4.62346766 -7.57699017 8.26341315 -8 12 C-6.82963695 13.39287806 -6.82963695 13.39287806 -3.5625 13.1875 C0.05032721 13.39564928 0.05032721 13.39564928 2 11 C2.35513379 9.09178939 2.35513379 9.09178939 2.3125 7 C2.32925781 6.29875 2.34601563 5.5975 2.36328125 4.875 C2.24339844 4.25625 2.12351562 3.6375 2 3 C-1.22791555 0.8480563 -2.28400809 0.79913557 -6 1 Z " fill="#E3EBF2" transform="translate(283,249)"/>
<path d="M0 0 C0.33 0 0.66 0 1 0 C3 7.625 3 7.625 3 11 C3.99 11.66 4.98 12.32 6 13 C5.67 13.66 5.34 14.32 5 15 C1.7 14.34 -1.6 13.68 -5 13 C-6 9 -6 9 -4.8203125 6.640625 C-4.26085937 5.85171875 -3.70140625 5.0628125 -3.125 4.25 C-2.57070312 3.45078125 -2.01640625 2.6515625 -1.4453125 1.828125 C-0.96835938 1.22484375 -0.49140625 0.6215625 0 0 Z " fill="#649CC0" transform="translate(192,167)"/>
<path d="M0 0 C1.48046875 1.12890625 1.48046875 1.12890625 3 3 C3.36328125 5.77734375 3.36328125 5.77734375 3.3125 8.9375 C3.30863281 9.97777344 3.30476563 11.01804688 3.30078125 12.08984375 C3.00468158 14.95470416 2.55940077 16.60675299 1 19 C-4.4843793 23.00211463 -9.63910891 23.12494194 -16.26953125 23.09765625 C-16.95053391 23.0962413 -17.63153656 23.09482635 -18.33317566 23.09336853 C-20.49299647 23.08780298 -22.65271089 23.07525703 -24.8125 23.0625 C-26.28320162 23.05748054 -27.75390488 23.05291841 -29.22460938 23.04882812 C-32.8164404 23.03784488 -36.4082098 23.02060422 -40 23 C-40 22.67 -40 22.34 -40 22 C-39.13834229 21.98541748 -38.27668457 21.97083496 -37.38891602 21.95581055 C-34.15125625 21.89427131 -30.91419072 21.82003217 -27.67700195 21.73754883 C-26.28355638 21.70456692 -24.88998578 21.67645433 -23.49633789 21.65356445 C-11.82291662 21.756816 -11.82291662 21.756816 -1 18 C1.64148075 14.23296218 1.07465991 10.63913314 0.625 6.1875 C0.51414063 5.02605469 0.40328125 3.86460937 0.2890625 2.66796875 C0.19367188 1.78753906 0.09828125 0.90710938 0 0 Z " fill="#DDDDDD" transform="translate(254,208)"/>
<path d="M0 0 C0.99 0.33 1.98 0.66 3 1 C-1.045361 5.67493705 -7.43462411 7.46750879 -13.40625 8.359375 C-20.01333227 8.59201874 -26.48152989 7.14991351 -31.5625 2.8125 C-32.036875 2.214375 -32.51125 1.61625 -33 1 C-30.525 1.495 -30.525 1.495 -28 2 C-28 2.66 -28 3.32 -28 4 C-26.700625 3.979375 -25.40125 3.95875 -24.0625 3.9375 C-22.70834367 3.91600546 -21.35243917 3.92851801 -20 4 C-19.67 4.33 -19.34 4.66 -19 5 C-17.65252916 5.23075082 -16.29622435 5.41153063 -14.9375 5.5625 C-13.638125 5.706875 -12.33875 5.85125 -11 6 C-11 5.34 -11 4.68 -11 4 C-8.36 4 -5.72 4 -3 4 C-3 3.34 -3 2.68 -3 2 C-2.01 1.34 -1.02 0.68 0 0 Z " fill="#2A8EBA" transform="translate(283,116)"/>
<path d="M0 0 C0.50615298 1.26839526 1.00469099 2.53983102 1.5 3.8125 C1.7784375 4.52019531 2.056875 5.22789063 2.34375 5.95703125 C3 8 3 8 3 11 C1.35 11.33 -0.3 11.66 -2 12 C-2.12375 11.2575 -2.2475 10.515 -2.375 9.75 C-2.95486701 7.19858515 -3.73708739 5.2732427 -5 3 C-6.093125 3.185625 -7.18625 3.37125 -8.3125 3.5625 C-12 4 -12 4 -15 3 C-10.45939105 0.16211941 -5.25102544 0 0 0 Z " fill="#2F9CC7" transform="translate(220,93)"/>
<path d="M0 0 C0.33 0 0.66 0 1 0 C0.73241334 6.02069994 0.13425804 10.30705844 -4 15 C-8.96332863 18.20548307 -8.96332863 18.20548307 -12.1875 17.56640625 C-12.785625 17.37949219 -13.38375 17.19257813 -14 17 C-13.07316406 16.10796875 -12.14632813 15.2159375 -11.19140625 14.296875 C-9.98137722 13.11498618 -8.77176335 11.93267222 -7.5625 10.75 C-6.95083984 10.16347656 -6.33917969 9.57695312 -5.70898438 8.97265625 C-5.12568359 8.39902344 -4.54238281 7.82539063 -3.94140625 7.234375 C-3.40201416 6.71069336 -2.86262207 6.18701172 -2.30688477 5.64746094 C-0.82879242 3.78417546 -0.40834789 2.32206478 0 0 Z " fill="#141414" transform="translate(397,214)"/>
<path d="M0 0 C3 1 3 1 5 4 C5 4.99 5 5.98 5 7 C2.22761296 9.28314227 0.67791279 10.02884735 -2.9375 9.875 C-6 9 -6 9 -8.875 7.4375 C-13.77863799 5.18182652 -18.8297147 5.27657157 -24 7 C-24 9.31 -24 11.62 -24 14 C-24.66 13.67 -25.32 13.34 -26 13 C-26.36352041 7.54719388 -26.36352041 7.54719388 -24.88671875 5.32421875 C-22.13412148 3.3922716 -19.9539658 3.60214669 -16.625 3.625 C-15.50351562 3.61726562 -14.38203125 3.60953125 -13.2265625 3.6015625 C-9.72418109 4.03405996 -7.91941541 5.10263297 -5 7 C-1.5989856 6.76271993 -0.430466 6.430466 2 4 C1.34 2.68 0.68 1.36 0 0 Z " fill="#ECECEC" transform="translate(393,185)"/>
<path d="M0 0 C5.97689202 0.7471115 11.05821919 3.70547946 16 7 C14.35 7.33 12.7 7.66 11 8 C11 7.34 11 6.68 11 6 C9.3603125 6.5259375 9.3603125 6.5259375 7.6875 7.0625 C4 8 4 8 1 7 C0.0409375 7.495 0.0409375 7.495 -0.9375 8 C-3 9 -3 9 -5.25 8.625 C-5.8275 8.41875 -6.405 8.2125 -7 8 C-5.5459375 7.13375 -5.5459375 7.13375 -4.0625 6.25 C-0.90530708 4.35207138 -0.90530708 4.35207138 -0.125 1.75 C-0.08375 1.1725 -0.0425 0.595 0 0 Z " fill="#8AACCC" transform="translate(220,251)"/>
<path d="M0 0 C0 0.99 0 1.98 0 3 C0.33 3.99 0.66 4.98 1 6 C1.66 6.33 2.32 6.66 3 7 C-0.67410785 8.17571451 -4.16929183 8.07366746 -8 8 C-8.33 7.01 -8.66 6.02 -9 5 C-8.01 4.01 -7.02 3.02 -6 2 C-12.93 1.505 -12.93 1.505 -20 1 C-20 0.67 -20 0.34 -20 0 C-17.04196565 -0.19421438 -14.08379837 -0.38066186 -11.125 -0.5625 C-10.28324219 -0.61857422 -9.44148437 -0.67464844 -8.57421875 -0.73242188 C-7.76855469 -0.78076172 -6.96289062 -0.82910156 -6.1328125 -0.87890625 C-5.01737061 -0.94960327 -5.01737061 -0.94960327 -3.87939453 -1.02172852 C-2 -1 -2 -1 0 0 Z " fill="#171717" transform="translate(245,222)"/>
<path d="M0 0 C2.64208106 2.04761282 4.65003679 3.75621183 5.578125 7.0546875 C5.95180676 11.96350693 4.90013498 14.71848021 1.75 18.5 C-1.98709817 22.52456726 -4.54225546 22.90744479 -9.9375 23.25 C-13.6915347 23.22193245 -15.95501299 22.28374026 -19 20 C-18.34 19.67 -17.68 19.34 -17 19 C-16.4225 19.309375 -15.845 19.61875 -15.25 19.9375 C-12.23440938 21.3615289 -10.31113493 21.39733619 -7 21 C-2.68353449 18.71481238 0.0976625 16.54447291 2 12 C2.40848636 7.42495281 2.00441422 4.13410434 0 0 Z " fill="#EAF0F7" transform="translate(191,285)"/>
<path d="M0 0 C1.17578125 2.40625 1.17578125 2.40625 2.3125 5.5 C4.30650738 10.59444569 6.65240496 14.84184662 9.86328125 19.2578125 C11 21 11 21 11 23 C11.99 23.33 12.98 23.66 14 24 C14 24.66 14 25.32 14 26 C14.99 26.33 15.98 26.66 17 27 C17 27.66 17 28.32 17 29 C8.22106215 25.39088111 2.78761855 14.20432253 -1 6 C-1.37609822 4.67809266 -1.72745259 3.34707342 -2 2 C-4.31 2 -6.62 2 -9 2 C-4 -1.33333333 -4 -1.33333333 0 0 Z " fill="#E6EDF3" transform="translate(197,218)"/>
<path d="M0 0 C2.475 0.99 2.475 0.99 5 2 C4.67 2.99 4.34 3.98 4 5 C4.66 5.33 5.32 5.66 6 6 C6 7.32 6 8.64 6 10 C4.1875 11.0625 4.1875 11.0625 2 12 C1.01 11.67 0.02 11.34 -1 11 C-1 9.68 -1 8.36 -1 7 C-2.32 6.67 -3.64 6.34 -5 6 C-4.34 5.34 -3.68 4.68 -3 4 C-3 3.67 -3 3.34 -3 3 C-2.01 3 -1.02 3 0 3 C0 2.01 0 1.02 0 0 Z " fill="#1277AC" transform="translate(212,150)"/>
<path d="M0 0 C0.66 0 1.32 0 2 0 C3.32421875 1.390625 3.32421875 1.390625 4.6875 3.25 C5.14511719 3.85328125 5.60273438 4.4565625 6.07421875 5.078125 C7 7 7 7 6.78125 9.03125 C5.45616482 12.37046466 3.55142032 14.50527791 1 17 C-2 17.8125 -2 17.8125 -5 17 C-7.0171521 14.86139634 -8.53478326 12.54143788 -10 10 C-9.34 9.67 -8.68 9.34 -8 9 C-5 12.75 -5 12.75 -5 15 C-1.46627288 13.03681826 1.24479785 10.95929119 4 8 C3.71125 7.4225 3.4225 6.845 3.125 6.25 C2.08333333 4.16666667 1.04166667 2.08333333 0 0 Z " fill="#E9EDF4" transform="translate(166,269)"/>
<path d="M0 0 C0.63158399 2.31091195 0.99790991 4.08360349 0.9375 6.5 C1.00544488 9.21779525 1.62900698 10.68644927 3 13 C-1.75 17 -1.75 17 -4 17 C-4 18.65 -4 20.3 -4 22 C-4.66 22 -5.32 22 -6 22 C-4.86299135 14.26534904 -2.89288848 7.26030749 0 0 Z " fill="#488BB9" transform="translate(139,161)"/>
<path d="M0 0 C2.1875 0.3125 2.1875 0.3125 4 1 C4.33 2.98 4.66 4.96 5 7 C3.04081032 6.94008594 1.08248471 6.85132862 -0.875 6.75 C-1.96554687 6.70359375 -3.05609375 6.6571875 -4.1796875 6.609375 C-7 6 -7 6 -8.3828125 3.953125 C-8.58648437 3.30859375 -8.79015625 2.6640625 -9 2 C-7.35 1.67 -5.7 1.34 -4 1 C-3.67 1.66 -3.34 2.32 -3 3 C-2.5875 2.484375 -2.175 1.96875 -1.75 1.4375 C-1.1725 0.963125 -0.595 0.48875 0 0 Z " fill="#127BB5" transform="translate(353,163)"/>
<path d="M0 0 C1.31554985 0.4495045 2.62738358 0.90989716 3.9375 1.375 C5.03384766 1.75785156 5.03384766 1.75785156 6.15234375 2.1484375 C8 3 8 3 9 5 C8.34 5 7.68 5 7 5 C6.67 6.32 6.34 7.64 6 9 C3.625 9.125 3.625 9.125 1 9 C-1 7 -1 7 -1.1875 3.9375 C-1 1 -1 1 0 0 Z " fill="#4A7AA9" transform="translate(211,246)"/>
<path d="M0 0 C2.0625 0.4375 2.0625 0.4375 4 1 C3.01 1.33 2.02 1.66 1 2 C-0.22445284 3.62948064 -0.22445284 3.62948064 -1.1875 5.5625 C-1.785625 6.696875 -2.38375 7.83125 -3 9 C-4.32 8.67 -5.64 8.34 -7 8 C-6.67 8.99 -6.34 9.98 -6 11 C-8.31 10.67 -10.62 10.34 -13 10 C-11.68144542 6.04433627 -10.14435027 5.74413841 -6.5 3.875 C-3.02894148 2.2555644 -3.02894148 2.2555644 0 0 Z " fill="#7BB4D5" transform="translate(220,143)"/>
<path d="M0 0 C2.5625 2.1875 2.5625 2.1875 5 5 C4.86863344 7.824381 4.25262369 9.49475261 3 12 C2.93049459 13.54023996 2.91547643 15.08334988 2.9375 16.625 C2.95103516 17.85089844 2.95103516 17.85089844 2.96484375 19.1015625 C2.97644531 19.72804687 2.98804688 20.35453125 3 21 C0.95880212 19.38405168 -1.04072937 17.7143618 -3 16 C-3 15.34 -3 14.68 -3 14 C-1.68 14 -0.36 14 1 14 C1.027193 12.41676312 1.04648306 10.83338938 1.0625 9.25 C1.07990234 7.92742187 1.07990234 7.92742187 1.09765625 6.578125 C1.00826198 4.2181162 0.66912821 2.25501476 0 0 Z " fill="#1A548F" transform="translate(201,234)"/>
<path d="M0 0 C2.46238893 0.83195276 4.65632899 1.8520795 7 3 C7 3.66 7 4.32 7 5 C5.68 5.33 4.36 5.66 3 6 C2.67 4.68 2.34 3.36 2 2 C1.34 2 0.68 2 0 2 C0 2.66 0 3.32 0 4 C-2.5 5.625 -2.5 5.625 -5 7 C-4.67 5.35 -4.34 3.7 -4 2 C-4.33 2.33 -4.66 2.66 -5 3 C-6.66617115 3.04063832 -8.33388095 3.042721 -10 3 C-7.27757152 -0.84342845 -4.43058324 -0.44305832 0 0 Z " fill="#708DB6" transform="translate(184,280)"/>
<path d="M0 0 C2.98622637 0.30891997 3.86118351 0.83246285 5.8125 3.1875 C7.29840129 6.70673991 7.15542086 8.3796813 6 12 C3.71294371 15.25465703 2.3187746 15.91611195 -1.5625 16.9375 C-3.2640625 16.9684375 -3.2640625 16.9684375 -5 17 C-5.99 16.01 -6.98 15.02 -8 14 C-4.7 14 -1.4 14 2 14 C4.28199051 9.43601897 4.14673145 7.85155613 3 3 C1.58408173 1.07716915 1.58408173 1.07716915 0 0 Z " fill="#EFF8FB" transform="translate(288,150)"/>
<path d="M0 0 C0 0.66 0 1.32 0 2 C-5.3131056 5.5420704 -9.78324143 6.40846264 -16.125 6.4375 C-16.805625 6.44716797 -17.48625 6.45683594 -18.1875 6.46679688 C-22.82837264 6.39005093 -26.01798416 5.33834886 -30 3 C-29.34 2.67 -28.68 2.34 -28 2 C-27.195625 2.309375 -26.39125 2.61875 -25.5625 2.9375 C-17.74157041 5.27005795 -10.98634511 4.62941662 -3.77734375 0.875 C-2 0 -2 0 0 0 Z " fill="#EFEFEF" transform="translate(324,228)"/>
<path d="M0 0 C0.66 0.33 1.32 0.66 2 1 C2 1.66 2 2.32 2 3 C4.475 3.99 4.475 3.99 7 5 C4.13822943 6.43088528 2.06624227 5.59991697 -1 5 C1.475 8.465 1.475 8.465 4 12 C1.33333333 10.66666667 -1.33333333 9.33333333 -4 8 C-2.68 9.65 -1.36 11.3 0 13 C-3.24271506 12.4409112 -4.93057424 11.5867822 -7 9 C-7 8.34 -7 7.68 -7 7 C-6.360625 6.87625 -5.72125 6.7525 -5.0625 6.625 C-4.381875 6.41875 -3.70125 6.2125 -3 6 C-2.67 5.34 -2.34 4.68 -2 4 C-1.34 4 -0.68 4 0 4 C0 2.68 0 1.36 0 0 Z " fill="#7B7B7B" transform="translate(294,217)"/>
<path d="M0 0 C2.1640625 0.0234375 2.1640625 0.0234375 4.625 0.375 C5.85089844 0.54128906 5.85089844 0.54128906 7.1015625 0.7109375 C7.72804688 0.80632812 8.35453125 0.90171875 9 1 C9 1.33 9 1.66 9 2 C4.545 2.495 4.545 2.495 0 3 C-0.433125 4.093125 -0.86625 5.18625 -1.3125 6.3125 C-2.49715394 9.07296721 -3.52722858 11.17229938 -6 13 C-6.66 13 -7.32 13 -8 13 C-8 13.66 -8 14.32 -8 15 C-8.66 14.67 -9.32 14.34 -10 14 C-8.71117878 12.03979285 -7.41885043 10.08189123 -6.125 8.125 C-5.04605469 6.48917969 -5.04605469 6.48917969 -3.9453125 4.8203125 C-2 2 -2 2 0 0 Z " fill="#9BB9D3" transform="translate(339,255)"/>
<path d="M0 0 C0.99 0.33 1.98 0.66 3 1 C2.34 1 1.68 1 1 1 C0.79375 1.886875 0.5875 2.77375 0.375 3.6875 C-1.38304358 7.92278682 -3.35373333 9.30493333 -7 12 C-6.42655063 9.13275314 -6.1385485 8.1385485 -4 6 C-4 5.34 -4 4.68 -4 4 C-4.66 3.67 -5.32 3.34 -6 3 C-5 2 -5 2 -2.4375 1.9375 C-1.2309375 1.9684375 -1.2309375 1.9684375 0 2 C0 1.34 0 0.68 0 0 Z " fill="#244C8E" transform="translate(179,281)"/>
<path d="M0 0 C0.33 0.66 0.66 1.32 1 2 C-1.31 2 -3.62 2 -6 2 C-6.66 4.97 -7.32 7.94 -8 11 C-8.66 11 -9.32 11 -10 11 C-10.36010591 3.67784643 -10.36010591 3.67784643 -8.9375 1 C-5.97912322 -0.52690415 -3.26283401 -0.18468872 0 0 Z " fill="#80A4C5" transform="translate(283,249)"/>
<path d="M0 0 C1.62463842 -0.05395478 3.24978541 -0.09277195 4.875 -0.125 C5.77992188 -0.14820313 6.68484375 -0.17140625 7.6171875 -0.1953125 C10 0 10 0 12 2 C11.195625 2.61875 10.39125 3.2375 9.5625 3.875 C6.96125481 5.74164041 6.96125481 5.74164041 6 8 C6.66 8.33 7.32 8.66 8 9 C5.03 9 2.06 9 -1 9 C-1 8.67 -1 8.34 -1 8 C-0.236875 7.95875 0.52625 7.9175 1.3125 7.875 C4.32405113 7.22176391 4.32405113 7.22176391 5.8125 3.9375 C6.204375 2.968125 6.59625 1.99875 7 1 C4.69 1 2.38 1 0 1 C0 0.67 0 0.34 0 0 Z " fill="#747474" transform="translate(373,180)"/>
<path d="M0 0 C1.15628906 0.00386719 2.31257813 0.00773438 3.50390625 0.01171875 C6.4375 0.3125 6.4375 0.3125 8.4375 2.3125 C7.61765625 2.30089844 6.7978125 2.28929687 5.953125 2.27734375 C4.87546875 2.26832031 3.7978125 2.25929687 2.6875 2.25 C1.62015625 2.23839844 0.5528125 2.22679687 -0.546875 2.21484375 C-3.09618501 2.29739913 -5.14183591 2.56632442 -7.5625 3.3125 C-7.5625 5.6225 -7.5625 7.9325 -7.5625 10.3125 C-8.2225 9.9825 -8.8825 9.6525 -9.5625 9.3125 C-9.92559013 3.86614807 -9.92559013 3.86614807 -8.4609375 1.6328125 C-5.65701369 -0.31724151 -3.3742426 -0.04901135 0 0 Z " fill="#F6F6F6" transform="translate(376.5625,188.6875)"/>
<path d="M0 0 C0.33 0 0.66 0 1 0 C3 7.625 3 7.625 3 11 C-2.875 8.25 -2.875 8.25 -4 6 C-2.69593116 3.98079663 -1.36176581 1.98075027 0 0 Z " fill="#6AA3CA" transform="translate(192,167)"/>
<path d="M0 0 C1.11375 0.185625 1.11375 0.185625 2.25 0.375 C1.63125 0.436875 1.0125 0.49875 0.375 0.5625 C-1.97204209 1.18559234 -1.97204209 1.18559234 -2.875 3.625 C-3.16375 4.5325 -3.4525 5.44 -3.75 6.375 C-4.41666667 8.04166667 -5.08333333 9.70833333 -5.75 11.375 C-4.1 13.025 -2.45 14.675 -0.75 16.375 C-3.66517292 15.30098892 -5.52810176 14.59689824 -7.75 12.375 C-7.51036258 7.10297669 -5.86038674 0.79914365 0 0 Z " fill="#F0F8FB" transform="translate(314.75,109.625)"/>
<path d="M0 0 C1.60568666 0.28317926 3.20952047 0.57687791 4.8125 0.875 C6.15248047 1.11863281 6.15248047 1.11863281 7.51953125 1.3671875 C10 2 10 2 13 4 C11.35 4.33 9.7 4.66 8 5 C8 4.34 8 3.68 8 3 C5.69 3.66 3.38 4.32 1 5 C0.34 4.01 -0.32 3.02 -1 2 C-0.67 1.34 -0.34 0.68 0 0 Z " fill="#6088AF" transform="translate(223,254)"/>
<path d="M0 0 C1.98 0.99 1.98 0.99 4 2 C4 4.31 4 6.62 4 9 C2.02 9.99 2.02 9.99 0 11 C0 7.37 0 3.74 0 0 Z " fill="#2A4D93" transform="translate(190,288)"/>
<path d="M0 0 C2.375 -0.125 2.375 -0.125 5 0 C5.66 0.66 6.32 1.32 7 2 C7.99 1.34 8.98 0.68 10 0 C8.70700306 2.88437779 7.34058637 4.87219421 5 7 C0 1.125 0 1.125 0 0 Z " fill="#138BBC" transform="translate(242,109)"/>
<path d="M0 0 C0 3 0 3 -1.8984375 5.04296875 C-2.71570313 5.75066406 -3.53296875 6.45835937 -4.375 7.1875 C-5.59316406 8.26064453 -5.59316406 8.26064453 -6.8359375 9.35546875 C-9 11 -9 11 -11 11 C-8.71019458 5.89197253 -5.793293 3.77506437 -1 1 C-0.67 0.67 -0.34 0.34 0 0 Z " fill="#F0F6FB" transform="translate(332,286)"/>
<path d="M0 0 C1.32 0.33 2.64 0.66 4 1 C4 1.99 4 2.98 4 4 C1.8125 5.5 1.8125 5.5 -1 7 C-1.928125 7.556875 -2.85625 8.11375 -3.8125 8.6875 C-4.534375 9.120625 -5.25625 9.55375 -6 10 C-4.4713021 6.56042971 -2.36189832 3.91300793 0 1 C0 0.67 0 0.34 0 0 Z " fill="#2564A0" transform="translate(192,219)"/>
<path d="M0 0 C2 2 2 2 2.23046875 4.05859375 C2.21628906 4.84363281 2.20210938 5.62867188 2.1875 6.4375 C2.18105469 7.21996094 2.17460937 8.00242188 2.16796875 8.80859375 C2 11 2 11 1 14 C0.34 14 -0.32 14 -1 14 C-1.66 15.32 -2.32 16.64 -3 18 C-3.66 17.67 -4.32 17.34 -5 17 C-5 16.34 -5 15.68 -5 15 C-4.360625 14.649375 -3.72125 14.29875 -3.0625 13.9375 C0.16794906 10.90283573 -0.15458553 7.2665605 0 3 C0 2.01 0 1.02 0 0 Z " fill="#E9E9E9" transform="translate(254,188)"/>
<path d="M0 0 C0 0.66 0 1.32 0 2 C-0.99 2 -1.98 2 -3 2 C-3.33 2.99 -3.66 3.98 -4 5 C-4.66 5 -5.32 5 -6 5 C-6 5.66 -6 6.32 -6 7 C-7.98 7 -9.96 7 -12 7 C-9.96660352 3.94990528 -9.15653311 3.3269396 -6 1.8125 C-5.29875 1.46832031 -4.5975 1.12414062 -3.875 0.76953125 C-2 0 -2 0 0 0 Z " fill="#8CC4DC" transform="translate(195,101)"/>
<path d="M0 0 C1.48831242 0.00667405 2.97660807 0.01863442 4.46484375 0.03515625 C5.22345703 0.03966797 5.98207031 0.04417969 6.76367188 0.04882812 C8.64326246 0.06064945 10.52281274 0.07858547 12.40234375 0.09765625 C12.40234375 0.42765625 12.40234375 0.75765625 12.40234375 1.09765625 C11.47550781 1.14664063 10.54867188 1.195625 9.59375 1.24609375 C8.39621094 1.32085937 7.19867188 1.395625 5.96484375 1.47265625 C4.17240234 1.57707031 4.17240234 1.57707031 2.34375 1.68359375 C1.37308594 1.82023438 0.40242188 1.956875 -0.59765625 2.09765625 C-0.92765625 2.75765625 -1.25765625 3.41765625 -1.59765625 4.09765625 C-2.25765625 4.09765625 -2.91765625 4.09765625 -3.59765625 4.09765625 C-3.92765625 5.08765625 -4.25765625 6.07765625 -4.59765625 7.09765625 C-4.64019981 5.09810879 -4.63846408 3.09723989 -4.59765625 1.09765625 C-3.59765625 0.09765625 -3.59765625 0.09765625 0 0 Z " fill="#494949" transform="translate(311.59765625,202.90234375)"/>
<path d="M0 0 C2 0 2 0 3.625 1.3125 C5 3 5 3 5 6 C5.66 6 6.32 6 7 6 C7.33 8.31 7.66 10.62 8 13 C5.27324841 10.59310197 3.88033404 8.07528977 2.3125 4.8125 C1.65701172 3.46091797 1.65701172 3.46091797 0.98828125 2.08203125 C0.66214844 1.39496094 0.33601563 0.70789063 0 0 Z " fill="#99C1D9" transform="translate(333,147)"/>
<path d="M0 0 C2.1519437 3.22791555 2.20086443 4.28400809 2 8 C-0.16874252 7.49396008 -1.99967627 7.00016187 -4 6 C-3.67 5.01 -3.34 4.02 -3 3 C-2.34 3 -1.68 3 -1 3 C-0.67 2.01 -0.34 1.02 0 0 Z " fill="#63A7CA" transform="translate(197,161)"/>
<path d="M0 0 C0.268125 0.598125 0.53625 1.19625 0.8125 1.8125 C2.03585242 4.06604393 2.97960332 5.42858036 5 7 C7.60611077 7.72197162 7.60611077 7.72197162 10 8 C10 8.66 10 9.32 10 10 C6.46322336 10.32152515 4.6037896 10.4131192 1.625 8.375 C-0.4131192 5.3962104 -0.32152515 3.53677664 0 0 Z " fill="#257FAC" transform="translate(278,155)"/>
<path d="M0 0 C0.99 0.33 1.98 0.66 3 1 C2.61094382 3.72339328 1.93262433 5.08903214 0.25 7.3125 C-2 9 -2 9 -4.6875 8.875 C-7 8 -7 8 -8 6 C-6.8553125 6.0928125 -6.8553125 6.0928125 -5.6875 6.1875 C-2.99160381 6.23738811 -2.99160381 6.23738811 -1.1875 4.6875 C0.2877467 2.93500458 0.2877467 2.93500458 0 0 Z " fill="#F9F9F9" transform="translate(325,186)"/>
<path d="M0 0 C2.475 0.495 2.475 0.495 5 1 C5 1.66 5 2.32 5 3 C7.64 3 10.28 3 13 3 C13.33 3.66 13.66 4.32 14 5 C10.88728483 6.36959468 9.74333845 5.90994332 6.4375 4.75 C3.64117344 3.32641557 1.93311437 2.3879648 0 0 Z " fill="#2087B6" transform="translate(250,117)"/>
<path d="M0 0 C0.66 0.33 1.32 0.66 2 1 C2.625 4.0625 2.625 4.0625 3 7 C0.03 6.67 -2.94 6.34 -6 6 C-6 5.67 -6 5.34 -6 5 C-4.02 5 -2.04 5 0 5 C0 3.35 0 1.7 0 0 Z " fill="#1C76AA" transform="translate(355,163)"/>
<path d="M0 0 C2.475 0.495 2.475 0.495 5 1 C5 2.65 5 4.3 5 6 C3.35 5.67 1.7 5.34 0 5 C0 3.35 0 1.7 0 0 Z " fill="#1C87B7" transform="translate(288,154)"/>
<path d="M0 0 C0.99 0.99 1.98 1.98 3 3 C2.01 3 1.02 3 0 3 C-0.2475 3.598125 -0.495 4.19625 -0.75 4.8125 C-2.16370012 7.28647521 -3.65055383 8.43370255 -6 10 C-6.66 9.67 -7.32 9.34 -8 9 C-6.8553125 7.88625 -6.8553125 7.88625 -5.6875 6.75 C-3.5606298 4.5736677 -1.7440044 2.47832204 0 0 Z " fill="#16A0CF" transform="translate(289,72)"/>
<path d="M0 0 C0.33 0.66 0.66 1.32 1 2 C3.31 2 5.62 2 8 2 C8 2.66 8 3.32 8 4 C4.37 4 0.74 4 -3 4 C-2.01 2.68 -1.02 1.36 0 0 Z " fill="#103571" transform="translate(248,317)"/>
<path d="M0 0 C0.99 0.33 1.98 0.66 3 1 C1.94124926 4.40312738 0.99097846 7.01353231 -1 10 C-1.66 10 -2.32 10 -3 10 C-2.21302675 6.58978257 -1.12880057 3.31114834 0 0 Z " fill="#EFF8FA" transform="translate(350,257)"/>
<path d="M0 0 C1.9375 0.375 1.9375 0.375 4 1 C4.33 1.66 4.66 2.32 5 3 C4.34 3 3.68 3 3 3 C2.67 4.32 2.34 5.64 2 7 C0.35 7 -1.3 7 -3 7 C-2.67 6.34 -2.34 5.68 -2 5 C-1.01 5 -0.02 5 1 5 C0.67 3.35 0.34 1.7 0 0 Z " fill="#8AAACC" transform="translate(215,248)"/>
<path d="M0 0 C1.32 0.66 2.64 1.32 4 2 C1.69 4.31 -0.62 6.62 -3 9 C-3.66 7.68 -4.32 6.36 -5 5 C-2 3 -2 3 1 3 C0.67 2.01 0.34 1.02 0 0 Z " fill="#2481A5" transform="translate(174,126)"/>
<path d="M0 0 C2.26609984 4.53219967 1.92735976 6.17772925 1 11 C0.01 11.33 -0.98 11.66 -2 12 C-1.34 8.04 -0.68 4.08 0 0 Z " fill="#DDF2F8" transform="translate(298,92)"/>
<path d="M0 0 C0.66 0.33 1.32 0.66 2 1 C0.36587557 2.70840281 -0.86906094 3.93453047 -3 5 C-4.99960012 5.039992 -7.00047242 5.04346799 -9 5 C-6.06626269 3.04417512 -3.21783702 1.43775696 0 0 Z " fill="#DFE9F3" transform="translate(298,309)"/>
<path d="M0 0 C1.9375 0.3125 1.9375 0.3125 4 1 C4.33 1.99 4.66 2.98 5 4 C3.35 4.33 1.7 4.66 0 5 C0 3.35 0 1.7 0 0 Z " fill="#1D6FA2" transform="translate(140,160)"/>
<path d="M0 0 C0.33 1.65 0.66 3.3 1 5 C0.01 5.495 0.01 5.495 -1 6 C-1.33 4.35 -1.66 2.7 -2 1 C-4.31 1.33 -6.62 1.66 -9 2 C-5.5647952 -0.29013653 -4.014669 -0.17842973 0 0 Z " fill="#D6ECF3" transform="translate(222,92)"/>
<path d="M0 0 C1.00000429 4.00001715 0.80688405 6.05523353 0 10 C-0.99 10 -1.98 10 -3 10 C-2.01 6.7 -1.02 3.4 0 0 Z " fill="#7FACCC" transform="translate(139,161)"/>
<path d="M0 0 C0 0.99 0 1.98 0 3 C-0.33 3.33 -0.66 3.66 -1 4 C-1.04080783 5.99958364 -1.04254356 8.00045254 -1 10 C-1.66 10 -2.32 10 -3 10 C-3.66 8.35 -4.32 6.7 -5 5 C-3.35 3.35 -1.7 1.7 0 0 Z " fill="#6DABCF" transform="translate(203,155)"/>
<path d="M0 0 C1.32 1.32 2.64 2.64 4 4 C2.68 3.67 1.36 3.34 0 3 C0.99 4.485 0.99 4.485 2 6 C0.68 5.67 -0.64 5.34 -2 5 C-2 4.34 -2 3.68 -2 3 C-2.66 2.67 -3.32 2.34 -4 2 C-2.68 1.34 -1.36 0.68 0 0 Z " fill="#4B9ECE" transform="translate(208,152)"/>
<path d="M0 0 C0.33 0 0.66 0 1 0 C1.24954005 1.43410368 1.47392642 2.87260072 1.6875 4.3125 C1.87892578 5.51326172 1.87892578 5.51326172 2.07421875 6.73828125 C2 9 2 9 -1 12 C-0.67 8.04 -0.34 4.08 0 0 Z " fill="#DBEAF5" transform="translate(198,197)"/>
</svg>
